<svg version="1.1" viewBox="0.0 0.0 580.0 359.0" fill="none" stroke="none" stroke-linecap="square" stroke-miterlimit="10" width="580" height="359" xmlns:xlink="http://www.w3.org/1999/xlink" xmlns="http://www.w3.org/2000/svg"><path fill="#ffffff" d="M0 0L580.0 0L580.0 359.0L0 359.0L0 0Z" fill-rule="nonzero"/><path stroke="#cccccc" stroke-width="1.0" stroke-linecap="butt" d="M51.5 334.5L562.5 334.5" fill-rule="nonzero"/><path stroke="#cccccc" stroke-width="1.0" stroke-linecap="butt" d="M51.5 263.5L562.5 263.5" fill-rule="nonzero"/><path stroke="#cccccc" stroke-width="1.0" stroke-linecap="butt" d="M51.5 192.5L562.5 192.5" fill-rule="nonzero"/><path stroke="#cccccc" stroke-width="1.0" stroke-linecap="butt" d="M51.5 121.5L562.5 121.5" fill-rule="nonzero"/><path stroke="#cccccc" stroke-width="1.0" stroke-linecap="butt" d="M51.5 50.5L562.5 50.5" fill-rule="nonzero"/><clipPath id="id_0"><path d="M51.95 50.916668L562.05 50.916668L562.05 334.05L51.95 334.05L51.95 50.916668Z" clip-rule="nonzero"/></clipPath><path stroke="#4285f4" stroke-width="2.0" stroke-linecap="butt" clip-path="url(#id_0)" d="M77.455 50.916668C77.455 50.916668 111.46167 106.35146 128.465 121.7C145.46834 137.04854 162.47166 131.21068 179.475 143.0079C196.47833 154.80513 213.48167 180.68611 230.485 192.48334C247.48833 204.28055 264.49167 205.54533 281.495 213.79124C298.49832 222.03714 315.50168 235.79024 332.505 241.95876C349.50833 248.12727 366.51166 247.25102 383.515 250.80234C400.51834 254.35365 417.52167 257.63797 434.525 263.26666C451.52832 268.8954 468.53168 272.77734 485.535 284.5746C502.53833 296.3718 536.545 334.05 536.545 334.05" fill-rule="nonzero"/><path stroke="#ea4335" stroke-width="2.0" stroke-linecap="butt" clip-path="url(#id_0)" d="M77.455 121.7C77.455 121.7 111.46167 179.54285 128.465 192.48334C145.46834 205.42383 162.47166 198.19968 179.475 199.34294C196.47833 200.48622 213.48167 198.6588 230.485 199.34294C247.48833 200.02708 264.49167 201.97388 281.495 203.44781C298.49832 204.92174 315.50168 203.84543 332.505 208.18652C349.50833 212.52763 366.51166 225.94312 383.515 229.49443C400.51834 233.04575 417.52167 223.86572 434.525 229.49443C451.52832 235.12314 468.53168 254.08664 485.535 263.26666C502.53833 272.4467 536.545 284.5746 536.545 284.5746" fill-rule="nonzero"/><path stroke="#fbbc04" stroke-width="2.0" stroke-linecap="butt" clip-path="url(#id_0)" d="M77.455 241.95876C77.455 241.95876 111.46167 226.27956 128.465 220.65085C145.46834 215.02216 162.47166 213.81523 179.475 208.18652C196.47833 202.55782 213.48167 188.35255 230.485 186.87862C247.48833 185.4047 264.49167 197.26556 281.495 199.34294C298.49832 201.42033 315.50168 197.86902 332.505 199.34294C349.50833 200.81688 366.51166 205.77847 383.515 208.18652C400.51834 210.59457 417.52167 211.71385 434.525 213.79124C451.52832 215.86862 468.53168 219.50758 485.535 220.65085C502.53833 221.79413 536.545 220.65085 536.545 220.65085" fill-rule="nonzero"/><path fill="#000000" fill-opacity="0.0" clip-path="url(#id_0)" d="M80.455 50.916668C80.455 52.57352 79.111855 53.916668 77.455 53.916668C75.79815 53.916668 74.455 52.57352 74.455 50.916668C74.455 49.25981 75.79815 47.916668 77.455 47.916668C79.111855 47.916668 80.455 49.25981 80.455 50.916668Z" fill-rule="nonzero"/><path fill="#000000" fill-opacity="0.0" clip-path="url(#id_0)" d="M131.465 121.7C131.465 123.35686 130.12186 124.7 128.465 124.7C126.80814 124.7 125.465 123.35686 125.465 121.7C125.465 120.043144 126.80814 118.7 128.465 118.7C130.12186 118.7 131.465 120.043144 131.465 121.7Z" fill-rule="nonzero"/><path fill="#000000" fill-opacity="0.0" clip-path="url(#id_0)" d="M182.475 143.0079C182.475 144.66476 181.13185 146.0079 179.475 146.0079C177.81815 146.0079 176.475 144.66476 176.475 143.0079C176.475 141.35106 177.81815 140.0079 179.475 140.0079C181.13185 140.0079 182.475 141.35106 182.475 143.0079Z" fill-rule="nonzero"/><path fill="#000000" fill-opacity="0.0" clip-path="url(#id_0)" d="M233.485 192.48334C233.485 194.14018 232.14186 195.48334 230.485 195.48334C228.82814 195.48334 227.485 194.14018 227.485 192.48334C227.485 190.82648 228.82814 189.48334 230.485 189.48334C232.14186 189.48334 233.485 190.82648 233.485 192.48334Z" fill-rule="nonzero"/><path fill="#000000" fill-opacity="0.0" clip-path="url(#id_0)" d="M284.495 213.79124C284.495 215.44809 283.15186 216.79124 281.495 216.79124C279.83813 216.79124 278.495 215.44809 278.495 213.79124C278.495 212.13438 279.83813 210.79124 281.495 210.79124C283.15186 210.79124 284.495 212.13438 284.495 213.79124Z" fill-rule="nonzero"/><path fill="#000000" fill-opacity="0.0" clip-path="url(#id_0)" d="M335.505 241.95876C335.505 243.61562 334.16187 244.95876 332.505 244.95876C330.84814 244.95876 329.505 243.61562 329.505 241.95876C329.505 240.30191 330.84814 238.95876 332.505 238.95876C334.16187 238.95876 335.505 240.30191 335.505 241.95876Z" fill-rule="nonzero"/><path fill="#000000" fill-opacity="0.0" clip-path="url(#id_0)" d="M386.515 250.80234C386.515 252.4592 385.17184 253.80234 383.515 253.80234C381.85815 253.80234 380.515 252.4592 380.515 250.80234C380.515 249.1455 381.85815 247.80234 383.515 247.80234C385.17184 247.80234 386.515 249.1455 386.515 250.80234Z" fill-rule="nonzero"/><path fill="#000000" fill-opacity="0.0" clip-path="url(#id_0)" d="M437.525 263.26666C437.525 264.92352 436.18185 266.26666 434.525 266.26666C432.86813 266.26666 431.525 264.92352 431.525 263.26666C431.525 261.6098 432.86813 260.26666 434.525 260.26666C436.18185 260.26666 437.525 261.6098 437.525 263.26666Z" fill-rule="nonzero"/><path fill="#000000" fill-opacity="0.0" clip-path="url(#id_0)" d="M488.535 284.5746C488.535 286.2314 487.19186 287.5746 485.535 287.5746C483.87814 287.5746 482.535 286.2314 482.535 284.5746C482.535 282.91772 483.87814 281.5746 485.535 281.5746C487.19186 281.5746 488.535 282.91772 488.535 284.5746Z" fill-rule="nonzero"/><path fill="#000000" fill-opacity="0.0" clip-path="url(#id_0)" d="M539.545 334.05C539.545 335.70685 538.20184 337.05 536.545 337.05C534.8881 337.05 533.545 335.70685 533.545 334.05C533.545 332.39316 534.8881 331.05 536.545 331.05C538.20184 331.05 539.545 332.39316 539.545 334.05Z" fill-rule="nonzero"/><path fill="#000000" fill-opacity="0.0" clip-path="url(#id_0)" d="M80.455 121.7C80.455 123.35686 79.111855 124.7 77.455 124.7C75.79815 124.7 74.455 123.35686 74.455 121.7C74.455 120.043144 75.79815 118.7 77.455 118.7C79.111855 118.7 80.455 120.043144 80.455 121.7Z" fill-rule="nonzero"/><path fill="#000000" fill-opacity="0.0" clip-path="url(#id_0)" d="M131.465 192.48334C131.465 194.14018 130.12186 195.48334 128.465 195.48334C126.80814 195.48334 125.465 194.14018 125.465 192.48334C125.465 190.82648 126.80814 189.48334 128.465 189.48334C130.12186 189.48334 131.465 190.82648 131.465 192.48334Z" fill-rule="nonzero"/><path fill="#000000" fill-opacity="0.0" clip-path="url(#id_0)" d="M182.475 199.34294C182.475 200.9998 181.13185 202.34294 179.475 202.34294C177.81815 202.34294 176.475 200.9998 176.475 199.34294C176.475 197.6861 177.81815 196.34294 179.475 196.34294C181.13185 196.34294 182.475 197.6861 182.475 199.34294Z" fill-rule="nonzero"/><path fill="#000000" fill-opacity="0.0" clip-path="url(#id_0)" d="M233.485 199.34294C233.485 200.9998 232.14186 202.34294 230.485 202.34294C228.82814 202.34294 227.485 200.9998 227.485 199.34294C227.485 197.6861 228.82814 196.34294 230.485 196.34294C232.14186 196.34294 233.485 197.6861 233.485 199.34294Z" fill-rule="nonzero"/><path fill="#000000" fill-opacity="0.0" clip-path="url(#id_0)" d="M284.495 203.44781C284.495 205.10466 283.15186 206.44781 281.495 206.44781C279.83813 206.44781 278.495 205.10466 278.495 203.44781C278.495 201.79095 279.83813 200.44781 281.495 200.44781C283.15186 200.44781 284.495 201.79095 284.495 203.44781Z" fill-rule="nonzero"/><path fill="#000000" fill-opacity="0.0" clip-path="url(#id_0)" d="M335.505 208.18652C335.505 209.84338 334.16187 211.18652 332.505 211.18652C330.84814 211.18652 329.505 209.84338 329.505 208.18652C329.505 206.52968 330.84814 205.18652 332.505 205.18652C334.16187 205.18652 335.505 206.52968 335.505 208.18652Z" fill-rule="nonzero"/><path fill="#000000" fill-opacity="0.0" clip-path="url(#id_0)" d="M386.515 229.49443C386.515 231.15129 385.17184 232.49443 383.515 232.49443C381.85815 232.49443 380.515 231.15129 380.515 229.49443C380.515 227.83759 381.85815 226.49443 383.515 226.49443C385.17184 226.49443 386.515 227.83759 386.515 229.49443Z" fill-rule="nonzero"/><path fill="#000000" fill-opacity="0.0" clip-path="url(#id_0)" d="M437.525 229.49443C437.525 231.15129 436.18185 232.49443 434.525 232.49443C432.86813 232.49443 431.525 231.15129 431.525 229.49443C431.525 227.83759 432.86813 226.49443 434.525 226.49443C436.18185 226.49443 437.525 227.83759 437.525 229.49443Z" fill-rule="nonzero"/><path fill="#000000" fill-opacity="0.0" clip-path="url(#id_0)" d="M488.535 263.26666C488.535 264.92352 487.19186 266.26666 485.535 266.26666C483.87814 266.26666 482.535 264.92352 482.535 263.26666C482.535 261.6098 483.87814 260.26666 485.535 260.26666C487.19186 260.26666 488.535 261.6098 488.535 263.26666Z" fill-rule="nonzero"/><path fill="#000000" fill-opacity="0.0" clip-path="url(#id_0)" d="M539.545 284.5746C539.545 286.2314 538.20184 287.5746 536.545 287.5746C534.8881 287.5746 533.545 286.2314 533.545 284.5746C533.545 282.91772 534.8881 281.5746 536.545 281.5746C538.20184 281.5746 539.545 282.91772 539.545 284.5746Z" fill-rule="nonzero"/><path fill="#000000" fill-opacity="0.0" clip-path="url(#id_0)" d="M80.455 241.95876C80.455 243.61562 79.111855 244.95876 77.455 244.95876C75.79815 244.95876 74.455 243.61562 74.455 241.95876C74.455 240.30191 75.79815 238.95876 77.455 238.95876C79.111855 238.95876 80.455 240.30191 80.455 241.95876Z" fill-rule="nonzero"/><path fill="#000000" fill-opacity="0.0" clip-path="url(#id_0)" d="M131.465 220.65085C131.465 222.30771 130.12186 223.65085 128.465 223.65085C126.80814 223.65085 125.465 222.30771 125.465 220.65085C125.465 218.994 126.80814 217.65085 128.465 217.65085C130.12186 217.65085 131.465 218.994 131.465 220.65085Z" fill-rule="nonzero"/><path fill="#000000" fill-opacity="0.0" clip-path="url(#id_0)" d="M182.475 208.18652C182.475 209.84338 181.13185 211.18652 179.475 211.18652C177.81815 211.18652 176.475 209.84338 176.475 208.18652C176.475 206.52968 177.81815 205.18652 179.475 205.18652C181.13185 205.18652 182.475 206.52968 182.475 208.18652Z" fill-rule="nonzero"/><path fill="#000000" fill-opacity="0.0" clip-path="url(#id_0)" d="M233.485 186.87862C233.485 188.53548 232.14186 189.87862 230.485 189.87862C228.82814 189.87862 227.485 188.53548 227.485 186.87862C227.485 185.22177 228.82814 183.87862 230.485 183.87862C232.14186 183.87862 233.485 185.22177 233.485 186.87862Z" fill-rule="nonzero"/><path fill="#000000" fill-opacity="0.0" clip-path="url(#id_0)" d="M284.495 199.34294C284.495 200.9998 283.15186 202.34294 281.495 202.34294C279.83813 202.34294 278.495 200.9998 278.495 199.34294C278.495 197.6861 279.83813 196.34294 281.495 196.34294C283.15186 196.34294 284.495 197.6861 284.495 199.34294Z" fill-rule="nonzero"/><path fill="#000000" fill-opacity="0.0" clip-path="url(#id_0)" d="M335.505 199.34294C335.505 200.9998 334.16187 202.34294 332.505 202.34294C330.84814 202.34294 329.505 200.9998 329.505 199.34294C329.505 197.6861 330.84814 196.34294 332.505 196.34294C334.16187 196.34294 335.505 197.6861 335.505 199.34294Z" fill-rule="nonzero"/><path fill="#000000" fill-opacity="0.0" clip-path="url(#id_0)" d="M386.515 208.18652C386.515 209.84338 385.17184 211.18652 383.515 211.18652C381.85815 211.18652 380.515 209.84338 380.515 208.18652C380.515 206.52968 381.85815 205.18652 383.515 205.18652C385.17184 205.18652 386.515 206.52968 386.515 208.18652Z" fill-rule="nonzero"/><path fill="#000000" fill-opacity="0.0" clip-path="url(#id_0)" d="M437.525 213.79124C437.525 215.44809 436.18185 216.79124 434.525 216.79124C432.86813 216.79124 431.525 215.44809 431.525 213.79124C431.525 212.13438 432.86813 210.79124 434.525 210.79124C436.18185 210.79124 437.525 212.13438 437.525 213.79124Z" fill-rule="nonzero"/><path fill="#000000" fill-opacity="0.0" clip-path="url(#id_0)" d="M488.535 220.65085C488.535 222.30771 487.19186 223.65085 485.535 223.65085C483.87814 223.65085 482.535 222.30771 482.535 220.65085C482.535 218.994 483.87814 217.65085 485.535 217.65085C487.19186 217.65085 488.535 218.994 488.535 220.65085Z" fill-rule="nonzero"/><path fill="#000000" fill-opacity="0.0" clip-path="url(#id_0)" d="M539.545 220.65085C539.545 222.30771 538.20184 223.65085 536.545 223.65085C534.8881 223.65085 533.545 222.30771 533.545 220.65085C533.545 218.994 534.8881 217.65085 536.545 217.65085C538.20184 217.65085 539.545 218.994 539.545 220.65085Z" fill-rule="nonzero"/><path fill="#000000" d="M29.45 333.8156Q29.45 332.28436 29.7625 331.3625Q30.075 330.425 30.684376 329.925Q31.309376 329.425 32.246876 329.425Q32.934376 329.425 33.45 329.70624Q33.98125 329.9875 34.325 330.51874Q34.66875 331.03436 34.85625 331.78436Q35.04375 332.53436 35.04375 333.8156Q35.04375 335.33124 34.73125 336.2531Q34.434376 337.175 33.809376 337.6906Q33.2 338.1906 32.246876 338.1906Q31.0125 338.1906 30.29375 337.3Q29.45 336.2375 29.45 333.8156ZM30.528126 333.8156Q30.528126 335.925 31.028126 336.6281Q31.528126 337.33124 32.246876 337.33124Q32.98125 337.33124 33.465626 336.6281Q33.965626 335.925 33.965626 333.8156Q33.965626 331.6906 33.465626 331.0031Q32.98125 330.3 32.23125 330.3Q31.5125 330.3 31.075 330.90936Q30.528126 331.6906 30.528126 333.8156ZM37.04375 338.05L37.04375 336.84686L38.246876 336.84686L38.246876 338.05L37.04375 338.05ZM43.41875 338.05L42.371876 338.05L42.371876 331.33124Q41.98125 331.6906 41.35625 332.0656Q40.746876 332.425 40.2625 332.59686L40.2625 331.58124Q41.1375 331.15936 41.79375 330.58124Q42.465626 329.9875 42.746876 329.425L43.41875 329.425L43.41875 338.05Z" fill-rule="nonzero"/><path fill="#000000" d="M43.41875 267.26666L42.371876 267.26666L42.371876 260.5479Q41.98125 260.9073 41.35625 261.2823Q40.746876 261.64166 40.2625 261.81354L40.2625 260.7979Q41.1375 260.37604 41.79375 259.7979Q42.465626 259.20416 42.746876 258.64166L43.41875 258.64166L43.41875 267.26666Z" fill-rule="nonzero"/><path fill="#000000" d="M36.41875 196.48334L35.371876 196.48334L35.371876 189.76459Q34.98125 190.12396 34.35625 190.49896Q33.746876 190.85834 33.2625 191.03021L33.2625 190.01459Q34.1375 189.59271 34.79375 189.01459Q35.465626 188.42084 35.746876 187.85834L36.41875 187.85834L36.41875 196.48334ZM39.45 192.24896Q39.45 190.71771 39.7625 189.79584Q40.075 188.85834 40.684376 188.35834Q41.309376 187.85834 42.246876 187.85834Q42.934376 187.85834 43.45 188.13959Q43.98125 188.42084 44.325 188.95209Q44.66875 189.46771 44.85625 190.21771Q45.04375 190.96771 45.04375 192.24896Q45.04375 193.76459 44.73125 194.68646Q44.434376 195.60834 43.809376 196.12396Q43.2 196.62396 42.246876 196.62396Q41.0125 196.62396 40.29375 195.73334Q39.45 194.67084 39.45 192.24896ZM40.528126 192.24896Q40.528126 194.35834 41.028126 195.06146Q41.528126 195.76459 42.246876 195.76459Q42.98125 195.76459 43.465626 195.06146Q43.965626 194.35834 43.965626 192.24896Q43.965626 190.12396 43.465626 189.43646Q42.98125 188.73334 42.23125 188.73334Q41.5125 188.73334 41.075 189.34271Q40.528126 190.12396 40.528126 192.24896Z" fill-rule="nonzero"/><path fill="#000000" d="M29.41875 125.7L28.371876 125.7L28.371876 118.98125Q27.98125 119.34062 27.35625 119.71562Q26.746876 120.075 26.2625 120.24687L26.2625 119.23125Q27.1375 118.80937 27.79375 118.23125Q28.465626 117.6375 28.746876 117.075L29.41875 117.075L29.41875 125.7ZM32.45 121.46562Q32.45 119.93437 32.7625 119.0125Q33.075 118.075 33.684376 117.575Q34.309376 117.075 35.246876 117.075Q35.934376 117.075 36.45 117.35625Q36.98125 117.6375 37.325 118.16875Q37.66875 118.68437 37.85625 119.43437Q38.04375 120.18437 38.04375 121.46562Q38.04375 122.98125 37.73125 123.90312Q37.434376 124.825 36.809376 125.34062Q36.2 125.84062 35.246876 125.84062Q34.0125 125.84062 33.29375 124.95Q32.45 123.8875 32.45 121.46562ZM33.528126 121.46562Q33.528126 123.575 34.028126 124.27812Q34.528126 124.98125 35.246876 124.98125Q35.98125 124.98125 36.465626 124.27812Q36.965626 123.575 36.965626 121.46562Q36.965626 119.34062 36.465626 118.65312Q35.98125 117.95 35.23125 117.95Q34.5125 117.95 34.075 118.55937Q33.528126 119.34062 33.528126 121.46562ZM39.45 121.46562Q39.45 119.93437 39.7625 119.0125Q40.075 118.075 40.684376 117.575Q41.309376 117.075 42.246876 117.075Q42.934376 117.075 43.45 117.35625Q43.98125 117.6375 44.325 118.16875Q44.66875 118.68437 44.85625 119.43437Q45.04375 120.18437 45.04375 121.46562Q45.04375 122.98125 44.73125 123.90312Q44.434376 124.825 43.809376 125.34062Q43.2 125.84062 42.246876 125.84062Q41.0125 125.84062 40.29375 124.95Q39.45 123.8875 39.45 121.46562ZM40.528126 121.46562Q40.528126 123.575 41.028126 124.27812Q41.528126 124.98125 42.246876 124.98125Q42.98125 124.98125 43.465626 124.27812Q43.965626 123.575 43.965626 121.46562Q43.965626 119.34062 43.465626 118.65312Q42.98125 117.95 42.23125 117.95Q41.5125 117.95 41.075 118.55937Q40.528126 119.34062 40.528126 121.46562Z" fill-rule="nonzero"/><path fill="#000000" d="M22.41875 54.916668L21.371876 54.916668L21.371876 48.197918Q20.98125 48.557293 20.35625 48.932293Q19.746876 49.291668 19.2625 49.463543L19.2625 48.447918Q20.1375 48.026043 20.79375 47.447918Q21.465626 46.854168 21.746876 46.291668L22.41875 46.291668L22.41875 54.916668ZM25.45 50.682293Q25.45 49.151043 25.7625 48.229168Q26.075 47.291668 26.684376 46.791668Q27.309376 46.291668 28.246876 46.291668Q28.934376 46.291668 29.45 46.572918Q29.98125 46.854168 30.325 47.385418Q30.66875 47.901043 30.85625 48.651043Q31.04375 49.401043 31.04375 50.682293Q31.04375 52.197918 30.73125 53.119793Q30.434376 54.041668 29.809376 54.557293Q29.2 55.057293 28.246876 55.057293Q27.0125 55.057293 26.29375 54.166668Q25.45 53.104168 25.45 50.682293ZM26.528126 50.682293Q26.528126 52.791668 27.028126 53.494793Q27.528126 54.197918 28.246876 54.197918Q28.98125 54.197918 29.465626 53.494793Q29.965626 52.791668 29.965626 50.682293Q29.965626 48.557293 29.465626 47.869793Q28.98125 47.166668 28.23125 47.166668Q27.5125 47.166668 27.075 47.776043Q26.528126 48.557293 26.528126 50.682293ZM32.45 50.682293Q32.45 49.151043 32.7625 48.229168Q33.075 47.291668 33.684376 46.791668Q34.309376 46.291668 35.246876 46.291668Q35.934376 46.291668 36.45 46.572918Q36.98125 46.854168 37.325 47.385418Q37.66875 47.901043 37.85625 48.651043Q38.04375 49.401043 38.04375 50.682293Q38.04375 52.197918 37.73125 53.119793Q37.434376 54.041668 36.809376 54.557293Q36.2 55.057293 35.246876 55.057293Q34.0125 55.057293 33.29375 54.166668Q32.45 53.104168 32.45 50.682293ZM33.528126 50.682293Q33.528126 52.791668 34.028126 53.494793Q34.528126 54.197918 35.246876 54.197918Q35.98125 54.197918 36.465626 53.494793Q36.965626 52.791668 36.965626 50.682293Q36.965626 48.557293 36.465626 47.869793Q35.98125 47.166668 35.23125 47.166668Q34.5125 47.166668 34.075 47.776043Q33.528126 48.557293 33.528126 50.682293ZM39.45 50.682293Q39.45 49.151043 39.7625 48.229168Q40.075 47.291668 40.684376 46.791668Q41.309376 46.291668 42.246876 46.291668Q42.934376 46.291668 43.45 46.572918Q43.98125 46.854168 44.325 47.385418Q44.66875 47.901043 44.85625 48.651043Q45.04375 49.401043 45.04375 50.682293Q45.04375 52.197918 44.73125 53.119793Q44.434376 54.041668 43.809376 54.557293Q43.2 55.057293 42.246876 55.057293Q41.0125 55.057293 40.29375 54.166668Q39.45 53.104168 39.45 50.682293ZM40.528126 50.682293Q40.528126 52.791668 41.028126 53.494793Q41.528126 54.197918 42.246876 54.197918Q42.98125 54.197918 43.465626 53.494793Q43.965626 52.791668 43.965626 50.682293Q43.965626 48.557293 43.465626 47.869793Q42.98125 47.166668 42.23125 47.166668Q41.5125 47.166668 41.075 47.776043Q40.528126 48.557293 40.528126 50.682293Z" fill-rule="nonzero"/><path stroke="#4285f4" stroke-width="4.0" stroke-linecap="butt" d="M92.5 24.95L104.5 24.95" fill-rule="nonzero"/><path fill="#1a1a1a" d="M117.546875 26.95L118.640625 27.075Q118.390625 28.028126 117.6875 28.559376Q116.984375 29.090626 115.90625 29.090626Q114.546875 29.090626 113.734375 28.246876Q112.9375 27.403126 112.9375 25.8875Q112.9375 24.325 113.75 23.465626Q114.5625 22.590626 115.84375 22.590626Q117.09375 22.590626 117.875 23.434376Q118.671875 24.278126 118.671875 25.825Q118.671875 25.91875 118.671875 26.10625L114.03125 26.10625Q114.09375 27.1375 114.609375 27.684376Q115.125 28.215626 115.90625 28.215626Q116.484375 28.215626 116.890625 27.91875Q117.3125 27.60625 117.546875 26.95ZM114.09375 25.246876L117.5625 25.246876Q117.5 24.45 117.171875 24.059376Q116.65625 23.45 115.859375 23.45Q115.125 23.45 114.625 23.934376Q114.140625 24.41875 114.09375 25.246876ZM120.296875 31.340626L120.296875 22.73125L121.25 22.73125L121.25 23.528126Q121.59375 23.059376 122.015625 22.825Q122.453125 22.590626 123.0625 22.590626Q123.859375 22.590626 124.46875 22.996876Q125.078125 23.403126 125.375 24.153126Q125.6875 24.903126 125.6875 25.79375Q125.6875 26.746876 125.34375 27.5125Q125.015625 28.278126 124.359375 28.684376Q123.703125 29.090626 122.984375 29.090626Q122.453125 29.090626 122.03125 28.871876Q121.609375 28.6375 121.34375 28.309376L121.34375 31.340626L120.296875 31.340626ZM121.25 25.871876Q121.25 27.075 121.734375 27.653126Q122.21875 28.215626 122.90625 28.215626Q123.609375 28.215626 124.109375 27.621876Q124.609375 27.028126 124.609375 25.778126Q124.609375 24.590626 124.125 24.0125Q123.640625 23.41875 122.953125 23.41875Q122.28125 23.41875 121.765625 24.04375Q121.25 24.66875 121.25 25.871876ZM126.875 27.090626L127.90625 26.934376Q128.0 27.559376 128.39062 27.8875Q128.79688 28.215626 129.53125 28.215626Q130.25 28.215626 130.59375 27.934376Q130.95312 27.6375 130.95312 27.23125Q130.95312 26.871876 130.64062 26.66875Q130.42188 26.528126 129.5625 26.309376Q128.40625 26.0125 127.953125 25.809376Q127.515625 25.590626 127.28125 25.215626Q127.046875 24.840626 127.046875 24.371876Q127.046875 23.965626 127.234375 23.60625Q127.421875 23.246876 127.75 23.0125Q128.0 22.840626 128.42188 22.715626Q128.84375 22.590626 129.34375 22.590626Q130.0625 22.590626 130.60938 22.809376Q131.17188 23.0125 131.4375 23.371876Q131.70312 23.73125 131.79688 24.325L130.76562 24.465626Q130.70312 23.996876 130.35938 23.73125Q130.03125 23.45 129.40625 23.45Q128.6875 23.45 128.375 23.7Q128.0625 23.934376 128.0625 24.2625Q128.0625 24.465626 128.1875 24.621876Q128.32812 24.79375 128.59375 24.903126Q128.75 24.965626 129.53125 25.16875Q130.65625 25.48125 131.09375 25.66875Q131.53125 25.85625 131.78125 26.215626Q132.03125 26.575 132.03125 27.121876Q132.03125 27.653126 131.71875 28.121876Q131.42188 28.575 130.84375 28.840626Q130.26562 29.090626 129.53125 29.090626Q128.3125 29.090626 127.671875 28.590626Q127.046875 28.075 126.875 27.090626ZM133.29688 21.575L133.29688 20.35625L134.35938 20.35625L134.35938 21.575L133.29688 21.575ZM133.29688 28.95L133.29688 22.73125L134.35938 22.73125L134.35938 28.95L133.29688 28.95ZM136.26562 28.95L136.26562 20.35625L137.32812 20.35625L137.32812 28.95L136.26562 28.95ZM138.90625 25.840626Q138.90625 24.10625 139.85938 23.278126Q140.65625 22.590626 141.8125 22.590626Q143.09375 22.590626 143.90625 23.434376Q144.73438 24.2625 144.73438 25.746876Q144.73438 26.95 144.375 27.6375Q144.01562 28.325 143.3125 28.715626Q142.625 29.090626 141.8125 29.090626Q140.51562 29.090626 139.70312 28.2625Q138.90625 27.41875 138.90625 25.840626ZM139.98438 25.840626Q139.98438 27.028126 140.5 27.621876Q141.03125 28.215626 141.8125 28.215626Q142.60938 28.215626 143.125 27.621876Q143.64062 27.028126 143.64062 25.809376Q143.64062 24.653126 143.10938 24.059376Q142.59375 23.465626 141.8125 23.465626Q141.03125 23.465626 140.5 24.059376Q139.98438 24.6375 139.98438 25.840626ZM146.29688 28.95L146.29688 22.73125L147.23438 22.73125L147.23438 23.60625Q147.92188 22.590626 149.21875 22.590626Q149.78125 22.590626 150.25 22.79375Q150.73438 22.996876 150.96875 23.325Q151.20312 23.653126 151.29688 24.090626Q151.34375 24.3875 151.34375 25.121876L151.34375 28.95L150.29688 28.95L150.29688 25.16875Q150.29688 24.5125 150.17188 24.2Q150.04688 23.8875 149.73438 23.7Q149.42188 23.496876 149.0 23.496876Q148.32812 23.496876 147.82812 23.934376Q147.34375 24.35625 147.34375 25.54375L147.34375 28.95L146.29688 28.95ZM152.3125 31.340626L152.3125 30.575L159.3125 30.575L159.3125 31.340626L152.3125 31.340626ZM159.875 27.090626L160.90625 26.934376Q161.0 27.559376 161.39062 27.8875Q161.79688 28.215626 162.53125 28.215626Q163.25 28.215626 163.59375 27.934376Q163.95312 27.6375 163.95312 27.23125Q163.95312 26.871876 163.64062 26.66875Q163.42188 26.528126 162.5625 26.309376Q161.40625 26.0125 160.95312 25.809376Q160.51562 25.590626 160.28125 25.215626Q160.04688 24.840626 160.04688 24.371876Q160.04688 23.965626 160.23438 23.60625Q160.42188 23.246876 160.75 23.0125Q161.0 22.840626 161.42188 22.715626Q161.84375 22.590626 162.34375 22.590626Q163.0625 22.590626 163.60938 22.809376Q164.17188 23.0125 164.4375 23.371876Q164.70312 23.73125 164.79688 24.325L163.76562 24.465626Q163.70312 23.996876 163.35938 23.73125Q163.03125 23.45 162.40625 23.45Q161.6875 23.45 161.375 23.7Q161.0625 23.934376 161.0625 24.2625Q161.0625 24.465626 161.1875 24.621876Q161.32812 24.79375 161.59375 24.903126Q161.75 24.965626 162.53125 25.16875Q163.65625 25.48125 164.09375 25.66875Q164.53125 25.85625 164.78125 26.215626Q165.03125 26.575 165.03125 27.121876Q165.03125 27.653126 164.71875 28.121876Q164.42188 28.575 163.84375 28.840626Q163.26562 29.090626 162.53125 29.090626Q161.3125 29.090626 160.67188 28.590626Q160.04688 28.075 159.875 27.090626ZM170.35938 26.66875L171.39062 26.809376Q171.21875 27.871876 170.51562 28.48125Q169.8125 29.090626 168.79688 29.090626Q167.51562 29.090626 166.73438 28.2625Q165.96875 27.41875 165.96875 25.85625Q165.96875 24.85625 166.29688 24.10625Q166.64062 23.340626 167.3125 22.965626Q168.0 22.590626 168.8125 22.590626Q169.8125 22.590626 170.45312 23.10625Q171.10938 23.60625 171.29688 24.559376L170.26562 24.715626Q170.125 24.090626 169.75 23.778126Q169.375 23.45 168.84375 23.45Q168.04688 23.45 167.54688 24.028126Q167.04688 24.590626 167.04688 25.825Q167.04688 27.090626 167.53125 27.653126Q168.01562 28.215626 168.78125 28.215626Q169.40625 28.215626 169.8125 27.840626Q170.23438 27.465626 170.35938 26.66875ZM172.29688 28.95L172.29688 20.35625L173.34375 20.35625L173.34375 23.434376Q174.07812 22.590626 175.20312 22.590626Q175.90625 22.590626 176.40625 22.871876Q176.92188 23.1375 177.14062 23.621876Q177.35938 24.090626 177.35938 25.0125L177.35938 28.95L176.3125 28.95L176.3125 25.0125Q176.3125 24.215626 175.96875 23.85625Q175.625 23.496876 175.0 23.496876Q174.53125 23.496876 174.10938 23.746876Q173.70312 23.98125 173.51562 24.403126Q173.34375 24.809376 173.34375 25.54375L173.34375 28.95L172.29688 28.95ZM183.54688 26.95L184.64062 27.075Q184.39062 28.028126 183.6875 28.559376Q182.98438 29.090626 181.90625 29.090626Q180.54688 29.090626 179.73438 28.246876Q178.9375 27.403126 178.9375 25.8875Q178.9375 24.325 179.75 23.465626Q180.5625 22.590626 181.84375 22.590626Q183.09375 22.590626 183.875 23.434376Q184.67188 24.278126 184.67188 25.825Q184.67188 25.91875 184.67188 26.10625L180.03125 26.10625Q180.09375 27.1375 180.60938 27.684376Q181.125 28.215626 181.90625 28.215626Q182.48438 28.215626 182.89062 27.91875Q183.3125 27.60625 183.54688 26.95ZM180.09375 25.246876L183.5625 25.246876Q183.5 24.45 183.17188 24.059376Q182.65625 23.45 181.85938 23.45Q181.125 23.45 180.625 23.934376Q180.14062 24.41875 180.09375 25.246876ZM190.32812 28.95L190.32812 28.16875Q189.73438 29.090626 188.59375 29.090626Q187.84375 29.090626 187.21875 28.684376Q186.59375 28.2625 186.25 27.528126Q185.90625 26.79375 185.90625 25.840626Q185.90625 24.91875 186.21875 24.153126Q186.53125 23.3875 187.15625 22.996876Q187.78125 22.590626 188.54688 22.590626Q189.10938 22.590626 189.54688 22.825Q189.98438 23.059376 190.26562 23.434376L190.26562 20.35625L191.3125 20.35625L191.3125 28.95L190.32812 28.95ZM187.0 25.840626Q187.0 27.04375 187.5 27.6375Q188.0 28.215626 188.6875 28.215626Q189.375 28.215626 189.85938 27.653126Q190.34375 27.090626 190.34375 25.934376Q190.34375 24.653126 189.84375 24.059376Q189.35938 23.465626 188.64062 23.465626Q187.9375 23.465626 187.46875 24.04375Q187.0 24.60625 187.0 25.840626ZM197.375 28.95L197.375 28.028126Q196.64062 29.090626 195.39062 29.090626Q194.84375 29.090626 194.35938 28.8875Q193.89062 28.66875 193.65625 28.35625Q193.42188 28.028126 193.32812 27.559376Q193.26562 27.2625 193.26562 26.575L193.26562 22.73125L194.32812 22.73125L194.32812 26.184376Q194.32812 26.996876 194.39062 27.29375Q194.48438 27.7 194.79688 27.95Q195.125 28.184376 195.60938 28.184376Q196.07812 28.184376 196.48438 27.95Q196.90625 27.7 197.07812 27.278126Q197.26562 26.85625 197.26562 26.059376L197.26562 22.73125L198.3125 22.73125L198.3125 28.95L197.375 28.95ZM200.26562 28.95L200.26562 20.35625L201.32812 20.35625L201.32812 28.95L200.26562 28.95ZM207.54688 26.95L208.64062 27.075Q208.39062 28.028126 207.6875 28.559376Q206.98438 29.090626 205.90625 29.090626Q204.54688 29.090626 203.73438 28.246876Q202.9375 27.403126 202.9375 25.8875Q202.9375 24.325 203.75 23.465626Q204.5625 22.590626 205.84375 22.590626Q207.09375 22.590626 207.875 23.434376Q208.67188 24.278126 208.67188 25.825Q208.67188 25.91875 208.67188 26.10625L204.03125 26.10625Q204.09375 27.1375 204.60938 27.684376Q205.125 28.215626 205.90625 28.215626Q206.48438 28.215626 206.89062 27.91875Q207.3125 27.60625 207.54688 26.95ZM204.09375 25.246876L207.5625 25.246876Q207.5 24.45 207.17188 24.059376Q206.65625 23.45 205.85938 23.45Q205.125 23.45 204.625 23.934376Q204.14062 24.41875 204.09375 25.246876Z" fill-rule="nonzero"/><path stroke="#ea4335" stroke-width="4.0" stroke-linecap="butt" d="M225.5 24.95L237.5 24.95" fill-rule="nonzero"/><path fill="#1a1a1a" d="M246.29688 21.575L246.29688 20.35625L247.35938 20.35625L247.35938 21.575L246.29688 21.575ZM246.29688 28.95L246.29688 22.73125L247.35938 22.73125L247.35938 28.95L246.29688 28.95ZM249.29688 28.95L249.29688 22.73125L250.23438 22.73125L250.23438 23.60625Q250.53125 23.1375 251.01562 22.871876Q251.5 22.590626 252.125 22.590626Q252.8125 22.590626 253.25 22.871876Q253.70312 23.153126 253.875 23.66875Q254.625 22.590626 255.79688 22.590626Q256.73438 22.590626 257.21875 23.10625Q257.71875 23.60625 257.71875 24.684376L257.71875 28.95L256.67188 28.95L256.67188 25.028126Q256.67188 24.403126 256.5625 24.121876Q256.46875 23.840626 256.20312 23.66875Q255.9375 23.496876 255.5625 23.496876Q254.90625 23.496876 254.46875 23.934376Q254.04688 24.371876 254.04688 25.340626L254.04688 28.95L252.98438 28.95L252.98438 24.903126Q252.98438 24.2 252.71875 23.85625Q252.46875 23.496876 251.89062 23.496876Q251.4375 23.496876 251.0625 23.73125Q250.6875 23.965626 250.51562 24.41875Q250.34375 24.871876 250.34375 25.715626L250.34375 28.95L249.29688 28.95ZM259.29688 31.340626L259.29688 22.73125L260.25 22.73125L260.25 23.528126Q260.59375 23.059376 261.01562 22.825Q261.45312 22.590626 262.0625 22.590626Q262.85938 22.590626 263.46875 22.996876Q264.07812 23.403126 264.375 24.153126Q264.6875 24.903126 264.6875 25.79375Q264.6875 26.746876 264.34375 27.5125Q264.01562 28.278126 263.35938 28.684376Q262.70312 29.090626 261.98438 29.090626Q261.45312 29.090626 261.03125 28.871876Q260.60938 28.6375 260.34375 28.309376L260.34375 31.340626L259.29688 31.340626ZM260.25 25.871876Q260.25 27.075 260.73438 27.653126Q261.21875 28.215626 261.90625 28.215626Q262.60938 28.215626 263.10938 27.621876Q263.60938 27.028126 263.60938 25.778126Q263.60938 24.590626 263.125 24.0125Q262.64062 23.41875 261.95312 23.41875Q261.28125 23.41875 260.76562 24.04375Q260.25 24.66875 260.25 25.871876ZM266.28125 28.95L266.28125 22.73125L267.23438 22.73125L267.23438 23.66875Q267.59375 23.0125 267.89062 22.809376Q268.20312 22.590626 268.57812 22.590626Q269.10938 22.590626 269.65625 22.91875L269.29688 23.903126Q268.90625 23.66875 268.53125 23.66875Q268.17188 23.66875 267.89062 23.8875Q267.625 24.090626 267.51562 24.465626Q267.32812 25.028126 267.32812 25.684376L267.32812 28.95L266.28125 28.95ZM269.90625 25.840626Q269.90625 24.10625 270.85938 23.278126Q271.65625 22.590626 272.8125 22.590626Q274.09375 22.590626 274.90625 23.434376Q275.73438 24.2625 275.73438 25.746876Q275.73438 26.95 275.375 27.6375Q275.01562 28.325 274.3125 28.715626Q273.625 29.090626 272.8125 29.090626Q271.51562 29.090626 270.70312 28.2625Q269.90625 27.41875 269.90625 25.840626ZM270.98438 25.840626Q270.98438 27.028126 271.5 27.621876Q272.03125 28.215626 272.8125 28.215626Q273.60938 28.215626 274.125 27.621876Q274.64062 27.028126 274.64062 25.809376Q274.64062 24.653126 274.10938 24.059376Q273.59375 23.465626 272.8125 23.465626Q272.03125 23.465626 271.5 24.059376Q270.98438 24.6375 270.98438 25.840626ZM279.01562 28.95L276.65625 22.73125L277.76562 22.73125L279.10938 26.45Q279.3125 27.059376 279.5 27.7Q279.64062 27.215626 279.89062 26.528126L281.28125 22.73125L282.35938 22.73125L280.0 28.95L279.01562 28.95ZM287.54688 26.95L288.64062 27.075Q288.39062 28.028126 287.6875 28.559376Q286.98438 29.090626 285.90625 29.090626Q284.54688 29.090626 283.73438 28.246876Q282.9375 27.403126 282.9375 25.8875Q282.9375 24.325 283.75 23.465626Q284.5625 22.590626 285.84375 22.590626Q287.09375 22.590626 287.875 23.434376Q288.67188 24.278126 288.67188 25.825Q288.67188 25.91875 288.67188 26.10625L284.03125 26.10625Q284.09375 27.1375 284.60938 27.684376Q285.125 28.215626 285.90625 28.215626Q286.48438 28.215626 286.89062 27.91875Q287.3125 27.60625 287.54688 26.95ZM284.09375 25.246876L287.5625 25.246876Q287.5 24.45 287.17188 24.059376Q286.65625 23.45 285.85938 23.45Q285.125 23.45 284.625 23.934376Q284.14062 24.41875 284.09375 25.246876ZM290.29688 28.95L290.29688 22.73125L291.23438 22.73125L291.23438 23.60625Q291.53125 23.1375 292.01562 22.871876Q292.5 22.590626 293.125 22.590626Q293.8125 22.590626 294.25 22.871876Q294.70312 23.153126 294.875 23.66875Q295.625 22.590626 296.79688 22.590626Q297.73438 22.590626 298.21875 23.10625Q298.71875 23.60625 298.71875 24.684376L298.71875 28.95L297.67188 28.95L297.67188 25.028126Q297.67188 24.403126 297.5625 24.121876Q297.46875 23.840626 297.20312 23.66875Q296.9375 23.496876 296.5625 23.496876Q295.90625 23.496876 295.46875 23.934376Q295.04688 24.371876 295.04688 25.340626L295.04688 28.95L293.98438 28.95L293.98438 24.903126Q293.98438 24.2 293.71875 23.85625Q293.46875 23.496876 292.89062 23.496876Q292.4375 23.496876 292.0625 23.73125Q291.6875 23.965626 291.51562 24.41875Q291.34375 24.871876 291.34375 25.715626L291.34375 28.95L290.29688 28.95ZM304.54688 26.95L305.64062 27.075Q305.39062 28.028126 304.6875 28.559376Q303.98438 29.090626 302.90625 29.090626Q301.54688 29.090626 300.73438 28.246876Q299.9375 27.403126 299.9375 25.8875Q299.9375 24.325 300.75 23.465626Q301.5625 22.590626 302.84375 22.590626Q304.09375 22.590626 304.875 23.434376Q305.67188 24.278126 305.67188 25.825Q305.67188 25.91875 305.67188 26.10625L301.03125 26.10625Q301.09375 27.1375 301.60938 27.684376Q302.125 28.215626 302.90625 28.215626Q303.48438 28.215626 303.89062 27.91875Q304.3125 27.60625 304.54688 26.95ZM301.09375 25.246876L304.5625 25.246876Q304.5 24.45 304.17188 24.059376Q303.65625 23.45 302.85938 23.45Q302.125 23.45 301.625 23.934376Q301.14062 24.41875 301.09375 25.246876ZM307.29688 28.95L307.29688 22.73125L308.23438 22.73125L308.23438 23.60625Q308.92188 22.590626 310.21875 22.590626Q310.78125 22.590626 311.25 22.79375Q311.73438 22.996876 311.96875 23.325Q312.20312 23.653126 312.29688 24.090626Q312.34375 24.3875 312.34375 25.121876L312.34375 28.95L311.29688 28.95L311.29688 25.16875Q311.29688 24.5125 311.17188 24.2Q311.04688 23.8875 310.73438 23.7Q310.42188 23.496876 310.0 23.496876Q309.32812 23.496876 308.82812 23.934376Q308.34375 24.35625 308.34375 25.54375L308.34375 28.95L307.29688 28.95ZM316.59375 28.0125L316.75 28.934376Q316.29688 29.028126 315.95312 29.028126Q315.375 29.028126 315.0625 28.85625Q314.75 28.66875 314.60938 28.371876Q314.48438 28.075 314.48438 27.121876L314.48438 23.54375L313.71875 23.54375L313.71875 22.73125L314.48438 22.73125L314.48438 21.184376L315.53125 20.559376L315.53125 22.73125L316.59375 22.73125L316.59375 23.54375L315.53125 23.54375L315.53125 27.184376Q315.53125 27.6375 315.57812 27.7625Q315.64062 27.8875 315.76562 27.965626Q315.89062 28.04375 316.125 28.04375Q316.3125 28.04375 316.59375 28.0125ZM316.3125 31.340626L316.3125 30.575L323.3125 30.575L323.3125 31.340626L316.3125 31.340626ZM328.32812 28.95L328.32812 28.16875Q327.73438 29.090626 326.59375 29.090626Q325.84375 29.090626 325.21875 28.684376Q324.59375 28.2625 324.25 27.528126Q323.90625 26.79375 323.90625 25.840626Q323.90625 24.91875 324.21875 24.153126Q324.53125 23.3875 325.15625 22.996876Q325.78125 22.590626 326.54688 22.590626Q327.10938 22.590626 327.54688 22.825Q327.98438 23.059376 328.26562 23.434376L328.26562 20.35625L329.3125 20.35625L329.3125 28.95L328.32812 28.95ZM325.0 25.840626Q325.0 27.04375 325.5 27.6375Q326.0 28.215626 326.6875 28.215626Q327.375 28.215626 327.85938 27.653126Q328.34375 27.090626 328.34375 25.934376Q328.34375 24.653126 327.84375 24.059376Q327.35938 23.465626 326.64062 23.465626Q325.9375 23.465626 325.46875 24.04375Q325.0 24.60625 325.0 25.840626ZM335.54688 26.95L336.64062 27.075Q336.39062 28.028126 335.6875 28.559376Q334.98438 29.090626 333.90625 29.090626Q332.54688 29.090626 331.73438 28.246876Q330.9375 27.403126 330.9375 25.8875Q330.9375 24.325 331.75 23.465626Q332.5625 22.590626 333.84375 22.590626Q335.09375 22.590626 335.875 23.434376Q336.67188 24.278126 336.67188 25.825Q336.67188 25.91875 336.67188 26.10625L332.03125 26.10625Q332.09375 27.1375 332.60938 27.684376Q333.125 28.215626 333.90625 28.215626Q334.48438 28.215626 334.89062 27.91875Q335.3125 27.60625 335.54688 26.95ZM332.09375 25.246876L335.5625 25.246876Q335.5 24.45 335.17188 24.059376Q334.65625 23.45 333.85938 23.45Q333.125 23.45 332.625 23.934376Q332.14062 24.41875 332.09375 25.246876ZM338.26562 28.95L338.26562 20.35625L339.32812 20.35625L339.32812 28.95L338.26562 28.95ZM343.59375 28.0125L343.75 28.934376Q343.29688 29.028126 342.95312 29.028126Q342.375 29.028126 342.0625 28.85625Q341.75 28.66875 341.60938 28.371876Q341.48438 28.075 341.48438 27.121876L341.48438 23.54375L340.71875 23.54375L340.71875 22.73125L341.48438 22.73125L341.48438 21.184376L342.53125 20.559376L342.53125 22.73125L343.59375 22.73125L343.59375 23.54375L342.53125 23.54375L342.53125 27.184376Q342.53125 27.6375 342.57812 27.7625Q342.64062 27.8875 342.76562 27.965626Q342.89062 28.04375 343.125 28.04375Q343.3125 28.04375 343.59375 28.0125ZM348.35938 28.184376Q347.76562 28.684376 347.21875 28.8875Q346.6875 29.090626 346.0625 29.090626Q345.03125 29.090626 344.48438 28.590626Q343.9375 28.090626 343.9375 27.309376Q343.9375 26.85625 344.14062 26.48125Q344.34375 26.090626 344.6875 25.871876Q345.03125 25.6375 345.45312 25.528126Q345.75 25.434376 346.39062 25.35625Q347.65625 25.215626 348.26562 24.996876Q348.26562 24.778126 348.26562 24.73125Q348.26562 24.075 347.96875 23.809376Q347.5625 23.465626 346.76562 23.465626Q346.03125 23.465626 345.67188 23.73125Q345.3125 23.98125 345.14062 24.6375L344.10938 24.496876Q344.25 23.840626 344.57812 23.434376Q344.90625 23.028126 345.51562 22.809376Q346.125 22.590626 346.92188 22.590626Q347.71875 22.590626 348.21875 22.778126Q348.71875 22.965626 348.95312 23.246876Q349.1875 23.528126 349.28125 23.965626Q349.32812 24.23125 349.32812 24.934376L349.32812 26.340626Q349.32812 27.809376 349.39062 28.2Q349.46875 28.590626 349.67188 28.95L348.5625 28.95Q348.40625 28.621876 348.35938 28.184376ZM348.26562 25.825Q347.6875 26.059376 346.54688 26.23125Q345.89062 26.325 345.625 26.45Q345.35938 26.559376 345.20312 26.778126Q345.0625 26.996876 345.0625 27.278126Q345.0625 27.7 345.375 27.98125Q345.70312 28.2625 346.3125 28.2625Q346.92188 28.2625 347.39062 27.996876Q347.875 27.73125 348.09375 27.2625Q348.26562 26.903126 348.26562 26.215626L348.26562 25.825Z" fill-rule="nonzero"/><path stroke="#fbbc04" stroke-width="4.0" stroke-linecap="butt" d="M366.5 24.95L378.5 24.95" fill-rule="nonzero"/><path fill="#1a1a1a" d="M387.29688 21.575L387.29688 20.35625L388.35938 20.35625L388.35938 21.575L387.29688 21.575ZM387.29688 28.95L387.29688 22.73125L388.35938 22.73125L388.35938 28.95L387.29688 28.95ZM390.29688 28.95L390.29688 22.73125L391.23438 22.73125L391.23438 23.60625Q391.53125 23.1375 392.01562 22.871876Q392.5 22.590626 393.125 22.590626Q393.8125 22.590626 394.25 22.871876Q394.70312 23.153126 394.875 23.66875Q395.625 22.590626 396.79688 22.590626Q397.73438 22.590626 398.21875 23.10625Q398.71875 23.60625 398.71875 24.684376L398.71875 28.95L397.67188 28.95L397.67188 25.028126Q397.67188 24.403126 397.5625 24.121876Q397.46875 23.840626 397.20312 23.66875Q396.9375 23.496876 396.5625 23.496876Q395.90625 23.496876 395.46875 23.934376Q395.04688 24.371876 395.04688 25.340626L395.04688 28.95L393.98438 28.95L393.98438 24.903126Q393.98438 24.2 393.71875 23.85625Q393.46875 23.496876 392.89062 23.496876Q392.4375 23.496876 392.0625 23.73125Q391.6875 23.965626 391.51562 24.41875Q391.34375 24.871876 391.34375 25.715626L391.34375 28.95L390.29688 28.95ZM400.29688 31.340626L400.29688 22.73125L401.25 22.73125L401.25 23.528126Q401.59375 23.059376 402.01562 22.825Q402.45312 22.590626 403.0625 22.590626Q403.85938 22.590626 404.46875 22.996876Q405.07812 23.403126 405.375 24.153126Q405.6875 24.903126 405.6875 25.79375Q405.6875 26.746876 405.34375 27.5125Q405.01562 28.278126 404.35938 28.684376Q403.70312 29.090626 402.98438 29.090626Q402.45312 29.090626 402.03125 28.871876Q401.60938 28.6375 401.34375 28.309376L401.34375 31.340626L400.29688 31.340626ZM401.25 25.871876Q401.25 27.075 401.73438 27.653126Q402.21875 28.215626 402.90625 28.215626Q403.60938 28.215626 404.10938 27.621876Q404.60938 27.028126 404.60938 25.778126Q404.60938 24.590626 404.125 24.0125Q403.64062 23.41875 402.95312 23.41875Q402.28125 23.41875 401.76562 24.04375Q401.25 24.66875 401.25 25.871876ZM407.28125 28.95L407.28125 22.73125L408.23438 22.73125L408.23438 23.66875Q408.59375 23.0125 408.89062 22.809376Q409.20312 22.590626 409.57812 22.590626Q410.10938 22.590626 410.65625 22.91875L410.29688 23.903126Q409.90625 23.66875 409.53125 23.66875Q409.17188 23.66875 408.89062 23.8875Q408.625 24.090626 408.51562 24.465626Q408.32812 25.028126 408.32812 25.684376L408.32812 28.95L407.28125 28.95ZM410.90625 25.840626Q410.90625 24.10625 411.85938 23.278126Q412.65625 22.590626 413.8125 22.590626Q415.09375 22.590626 415.90625 23.434376Q416.73438 24.2625 416.73438 25.746876Q416.73438 26.95 416.375 27.6375Q416.01562 28.325 415.3125 28.715626Q414.625 29.090626 413.8125 29.090626Q412.51562 29.090626 411.70312 28.2625Q410.90625 27.41875 410.90625 25.840626ZM411.98438 25.840626Q411.98438 27.028126 412.5 27.621876Q413.03125 28.215626 413.8125 28.215626Q414.60938 28.215626 415.125 27.621876Q415.64062 27.028126 415.64062 25.809376Q415.64062 24.653126 415.10938 24.059376Q414.59375 23.465626 413.8125 23.465626Q413.03125 23.465626 412.5 24.059376Q411.98438 24.6375 411.98438 25.840626ZM420.01562 28.95L417.65625 22.73125L418.76562 22.73125L420.10938 26.45Q420.3125 27.059376 420.5 27.7Q420.64062 27.215626 420.89062 26.528126L422.28125 22.73125L423.35938 22.73125L421.0 28.95L420.01562 28.95ZM428.54688 26.95L429.64062 27.075Q429.39062 28.028126 428.6875 28.559376Q427.98438 29.090626 426.90625 29.090626Q425.54688 29.090626 424.73438 28.246876Q423.9375 27.403126 423.9375 25.8875Q423.9375 24.325 424.75 23.465626Q425.5625 22.590626 426.84375 22.590626Q428.09375 22.590626 428.875 23.434376Q429.67188 24.278126 429.67188 25.825Q429.67188 25.91875 429.67188 26.10625L425.03125 26.10625Q425.09375 27.1375 425.60938 27.684376Q426.125 28.215626 426.90625 28.215626Q427.48438 28.215626 427.89062 27.91875Q428.3125 27.60625 428.54688 26.95ZM425.09375 25.246876L428.5625 25.246876Q428.5 24.45 428.17188 24.059376Q427.65625 23.45 426.85938 23.45Q426.125 23.45 425.625 23.934376Q425.14062 24.41875 425.09375 25.246876ZM431.29688 28.95L431.29688 22.73125L432.23438 22.73125L432.23438 23.60625Q432.53125 23.1375 433.01562 22.871876Q433.5 22.590626 434.125 22.590626Q434.8125 22.590626 435.25 22.871876Q435.70312 23.153126 435.875 23.66875Q436.625 22.590626 437.79688 22.590626Q438.73438 22.590626 439.21875 23.10625Q439.71875 23.60625 439.71875 24.684376L439.71875 28.95L438.67188 28.95L438.67188 25.028126Q438.67188 24.403126 438.5625 24.121876Q438.46875 23.840626 438.20312 23.66875Q437.9375 23.496876 437.5625 23.496876Q436.90625 23.496876 436.46875 23.934376Q436.04688 24.371876 436.04688 25.340626L436.04688 28.95L434.98438 28.95L434.98438 24.903126Q434.98438 24.2 434.71875 23.85625Q434.46875 23.496876 433.89062 23.496876Q433.4375 23.496876 433.0625 23.73125Q432.6875 23.965626 432.51562 24.41875Q432.34375 24.871876 432.34375 25.715626L432.34375 28.95L431.29688 28.95ZM445.54688 26.95L446.64062 27.075Q446.39062 28.028126 445.6875 28.559376Q444.98438 29.090626 443.90625 29.090626Q442.54688 29.090626 441.73438 28.246876Q440.9375 27.403126 440.9375 25.8875Q440.9375 24.325 441.75 23.465626Q442.5625 22.590626 443.84375 22.590626Q445.09375 22.590626 445.875 23.434376Q446.67188 24.278126 446.67188 25.825Q446.67188 25.91875 446.67188 26.10625L442.03125 26.10625Q442.09375 27.1375 442.60938 27.684376Q443.125 28.215626 443.90625 28.215626Q444.48438 28.215626 444.89062 27.91875Q445.3125 27.60625 445.54688 26.95ZM442.09375 25.246876L445.5625 25.246876Q445.5 24.45 445.17188 24.059376Q444.65625 23.45 443.85938 23.45Q443.125 23.45 442.625 23.934376Q442.14062 24.41875 442.09375 25.246876ZM448.29688 28.95L448.29688 22.73125L449.23438 22.73125L449.23438 23.60625Q449.92188 22.590626 451.21875 22.590626Q451.78125 22.590626 452.25 22.79375Q452.73438 22.996876 452.96875 23.325Q453.20312 23.653126 453.29688 24.090626Q453.34375 24.3875 453.34375 25.121876L453.34375 28.95L452.29688 28.95L452.29688 25.16875Q452.29688 24.5125 452.17188 24.2Q452.04688 23.8875 451.73438 23.7Q451.42188 23.496876 451.0 23.496876Q450.32812 23.496876 449.82812 23.934376Q449.34375 24.35625 449.34375 25.54375L449.34375 28.95L448.29688 28.95ZM457.59375 28.0125L457.75 28.934376Q457.29688 29.028126 456.95312 29.028126Q456.375 29.028126 456.0625 28.85625Q455.75 28.66875 455.60938 28.371876Q455.48438 28.075 455.48438 27.121876L455.48438 23.54375L454.71875 23.54375L454.71875 22.73125L455.48438 22.73125L455.48438 21.184376L456.53125 20.559376L456.53125 22.73125L457.59375 22.73125L457.59375 23.54375L456.53125 23.54375L456.53125 27.184376Q456.53125 27.6375 456.57812 27.7625Q456.64062 27.8875 456.76562 27.965626Q456.89062 28.04375 457.125 28.04375Q457.3125 28.04375 457.59375 28.0125ZM457.3125 31.340626L457.3125 30.575L464.3125 30.575L464.3125 31.340626L457.3125 31.340626ZM467.59375 28.0125L467.75 28.934376Q467.29688 29.028126 466.95312 29.028126Q466.375 29.028126 466.0625 28.85625Q465.75 28.66875 465.60938 28.371876Q465.48438 28.075 465.48438 27.121876L465.48438 23.54375L464.71875 23.54375L464.71875 22.73125L465.48438 22.73125L465.48438 21.184376L466.53125 20.559376L466.53125 22.73125L467.59375 22.73125L467.59375 23.54375L466.53125 23.54375L466.53125 27.184376Q466.53125 27.6375 466.57812 27.7625Q466.64062 27.8875 466.76562 27.965626Q466.89062 28.04375 467.125 28.04375Q467.3125 28.04375 467.59375 28.0125ZM468.29688 21.575L468.29688 20.35625L469.35938 20.35625L469.35938 21.575L468.29688 21.575ZM468.29688 28.95L468.29688 22.73125L469.35938 22.73125L469.35938 28.95L468.29688 28.95ZM471.29688 28.95L471.29688 22.73125L472.23438 22.73125L472.23438 23.60625Q472.53125 23.1375 473.01562 22.871876Q473.5 22.590626 474.125 22.590626Q474.8125 22.590626 475.25 22.871876Q475.70312 23.153126 475.875 23.66875Q476.625 22.590626 477.79688 22.590626Q478.73438 22.590626 479.21875 23.10625Q479.71875 23.60625 479.71875 24.684376L479.71875 28.95L478.67188 28.95L478.67188 25.028126Q478.67188 24.403126 478.5625 24.121876Q478.46875 23.840626 478.20312 23.66875Q477.9375 23.496876 477.5625 23.496876Q476.90625 23.496876 476.46875 23.934376Q476.04688 24.371876 476.04688 25.340626L476.04688 28.95L474.98438 28.95L474.98438 24.903126Q474.98438 24.2 474.71875 23.85625Q474.46875 23.496876 473.89062 23.496876Q473.4375 23.496876 473.0625 23.73125Q472.6875 23.965626 472.51562 24.41875Q472.34375 24.871876 472.34375 25.715626L472.34375 28.95L471.29688 28.95ZM485.54688 26.95L486.64062 27.075Q486.39062 28.028126 485.6875 28.559376Q484.98438 29.090626 483.90625 29.090626Q482.54688 29.090626 481.73438 28.246876Q480.9375 27.403126 480.9375 25.8875Q480.9375 24.325 481.75 23.465626Q482.5625 22.590626 483.84375 22.590626Q485.09375 22.590626 485.875 23.434376Q486.67188 24.278126 486.67188 25.825Q486.67188 25.91875 486.67188 26.10625L482.03125 26.10625Q482.09375 27.1375 482.60938 27.684376Q483.125 28.215626 483.90625 28.215626Q484.48438 28.215626 484.89062 27.91875Q485.3125 27.60625 485.54688 26.95ZM482.09375 25.246876L485.5625 25.246876Q485.5 24.45 485.17188 24.059376Q484.65625 23.45 483.85938 23.45Q483.125 23.45 482.625 23.934376Q482.14062 24.41875 482.09375 25.246876Z" fill-rule="nonzero"/></svg>