<svg id="Layer_1" data-name="Layer 1" xmlns="http://www.w3.org/2000/svg" viewBox="0 0 843 843"><defs><style>.cls-1{fill:#97295f;}.cls-2{fill:#eb90bb;}</style></defs><title>adobe indesign</title><rect class="cls-1" width="843" height="843" rx="100" ry="100"/><path class="cls-2" d="M322.86,711.39l-.11-405.14s.08-4.43,4.38-4.57,71.45-.07,71.45-.07,3.42-.41,3.42,5.06V710.86s1.53,8.14-4.5,8.14H329.15S322.86,719.19,322.86,711.39Z" transform="translate(-90 -91)"/><path class="cls-2" d="M460,710V363.83s0-4.2,7.81-5.83c17.36-2.83,38.52-4.83,95.83-4.16,34.4,0,168.48,9.16,167.93,172.27-.17,63.66-9.4,122.61-56.28,159.23C645,709.47,607.63,722.23,554.37,722c-20.94-.07-57.1-1.25-79.57-3.75C471.88,717.93,460,716.41,460,710Zm108.8-55.76c47.44,0,81-23.72,81-126.5s-69.45-106.11-81-106.11S546,422.91,546,422.91V652.6S561,654.37,568.8,654.27Z" transform="translate(-90 -91)"/></svg>