<?xml version="1.0" encoding="UTF-8" standalone="no"?>
<svg width="170px" height="170px" viewBox="0 0 170 170" version="1.1" xmlns="http://www.w3.org/2000/svg" xmlns:xlink="http://www.w3.org/1999/xlink">
    <!-- Generator: Sketch 39.1 (31720) - http://www.bohemiancoding.com/sketch -->
    <title>Unofficial_JavaScript_logo_2</title>
    <desc>Created with Sketch.</desc>
    <defs></defs>
    <g id="Page-1" stroke="none" stroke-width="1" fill="none" fill-rule="evenodd">
        <g id="Artboard" transform="translate(-1650.000000, -8595.000000)">
            <g id="Group-5" transform="translate(98.000000, 7782.000000)">
                <g id="Unofficial_JavaScript_logo_2" transform="translate(1552.000000, 813.000000)">
                    <g id="Group">
                        <rect id="Rectangle-path" fill="#F7DF1E" x="0" y="0" width="170" height="170"></rect>
                        <path d="M114.196825,132.813175 C117.621111,138.404286 122.07619,142.513968 129.955556,142.513968 C136.574762,142.513968 140.803175,139.205714 140.803175,134.634603 C140.803175,129.156825 136.45873,127.216667 129.173016,124.029841 L125.179365,122.316349 C113.651746,117.405238 105.993651,111.252857 105.993651,98.2465079 C105.993651,86.2655556 115.122381,77.1449206 129.388889,77.1449206 C139.545714,77.1449206 146.847619,80.6798413 152.109524,89.9353968 L139.669841,97.9226984 C136.930952,93.0115873 133.97619,91.0768254 129.388889,91.0768254 C124.709841,91.0768254 121.744286,94.0450794 121.744286,97.9226984 C121.744286,102.715079 124.71254,104.655238 131.566508,107.623492 L135.560159,109.334286 C149.133175,115.154762 156.796667,121.088571 156.796667,134.429524 C156.796667,148.812063 145.498413,156.691429 130.325238,156.691429 C115.489365,156.691429 105.904603,149.621587 101.214762,140.355238 L114.196825,132.813175 Z M57.7649206,134.19746 C60.2744444,138.649841 62.5573016,142.414127 68.045873,142.414127 C73.2942857,142.414127 76.6052381,140.360635 76.6052381,132.376032 L76.6052381,78.0569841 L92.5798413,78.0569841 L92.5798413,132.591905 C92.5798413,149.133175 82.881746,156.661746 68.725873,156.661746 C55.9353968,156.661746 48.528254,150.04254 44.7612698,142.070079 L57.7649206,134.19746 Z" id="Shape" fill="#000000"></path>
                    </g>
                </g>
            </g>
        </g>
    </g>
</svg>