<?xml version="1.0" encoding="UTF-8" standalone="no"?>
<svg width="177px" height="170px" viewBox="0 0 177 170" version="1.1" xmlns="http://www.w3.org/2000/svg" xmlns:xlink="http://www.w3.org/1999/xlink">
    <!-- Generator: Sketch 39.1 (31720) - http://www.bohemiancoding.com/sketch -->
    <title>ruby-plain</title>
    <desc>Created with Sketch.</desc>
    <defs></defs>
    <g id="Page-1" stroke="none" stroke-width="1" fill="none" fill-rule="evenodd">
        <g id="Artboard" transform="translate(-697.000000, -7821.000000)" fill="#D91404">
            <g id="Group-5" transform="translate(98.000000, 7782.000000)">
                <g id="ruby-plain" transform="translate(598.822430, 39.000000)">
                    <path d="M48.7478575,152.050833 C87.6580241,157.363333 125.876857,162.580917 164.855024,167.9005 C151.575191,145.792 138.636774,124.24875 125.594941,102.529833 L48.7478575,152.050833 L48.7478575,152.050833 Z M175.837024,29.6749167 C172.407274,34.8259167 168.970441,39.9726667 165.544941,45.1265 C153.780941,62.8249167 142.018357,80.5233333 130.265691,98.23025 C129.611191,99.21625 128.762607,99.99825 129.684857,101.518333 C141.040857,120.27075 152.307607,139.078417 163.602691,157.869083 C165.384857,160.837 167.186857,163.793583 169.491774,166.641083 C171.775441,121.034333 174.057691,75.4261667 176.339941,29.8194167 L175.837024,29.6749167 L175.837024,29.6749167 Z M20.8126075,88.145 C21.3438575,88.6479167 22.6698575,88.9411667 23.2875241,88.6365833 C34.1802741,83.283 45.1424408,78.0484167 55.7971908,72.25425 C59.2722741,70.3658333 61.9441075,66.98 64.9375241,64.2345 C74.8499408,55.14375 84.7467741,46.0345833 94.6393575,36.924 C95.2442741,36.3644167 95.9611075,35.82325 96.3223575,35.11775 C99.8753575,28.17325 103.367441,21.1933333 106.982774,14.01225 C102.671857,12.3915833 98.5847741,10.8063333 94.4466908,9.36416667 C93.8856908,9.16866667 93.0016908,9.55683333 92.3939408,9.89541667 C82.8158575,15.2461667 73.0578575,20.3121667 63.7843575,26.1474167 C59.1447741,29.0671667 55.3651075,33.3695833 51.2567741,37.1166667 C44.6352741,43.1601667 38.0222741,49.2178333 31.4971075,55.3661667 C29.7659408,56.9981667 28.1877741,58.8625 26.8391075,60.826 C22.3766075,67.32425 18.0472741,73.916 13.5196075,80.69475 C16.0497741,83.3113333 18.3504408,85.8131667 20.8126075,88.145 L20.8126075,88.145 Z M60.6237741,79.2610833 C55.2050241,102.153 49.8188575,124.916 44.2527741,148.427 C70.3520241,131.60975 95.8491908,115.180667 121.177774,98.8620833 C101.021441,92.3383333 80.9302741,85.8344167 60.6237741,79.2610833 L60.6237741,79.2610833 Z M169.184357,29.8959167 C147.132524,33.5806667 125.607691,37.1761667 103.805191,40.8184167 C111.231357,58.8823333 118.508774,76.5835833 125.993024,94.78775 C140.472774,73.0291667 154.666357,51.7069167 169.184357,29.8959167 L169.184357,29.8959167 Z M61.5332741,74.579 C81.3906908,81.0248333 100.852857,87.3431667 120.880274,93.8456667 C113.442774,75.7265 106.260274,58.2405833 98.9290241,40.3849167 C86.4411075,51.8018333 74.1401908,63.0501667 61.5332741,74.579 L61.5332741,74.579 Z M21.6328575,101.49425 C14.5906075,118.3285 7.78777414,134.590417 0.86169081,151.145583 C14.1726908,150.75175 27.0756908,150.370667 40.4221075,149.976833 C34.1561908,133.809833 28.0135241,117.960167 21.6328575,101.49425 L21.6328575,101.49425 Z M40.8896075,138.463583 L41.3797741,138.355917 C46.1298575,118.606167 50.9479408,98.9924167 55.7971908,78.4705833 C44.9795241,84.0933333 34.6605241,89.4554167 24.0596075,94.96625 C29.4698575,109.028083 35.2385241,123.862 40.8896075,138.463583 L40.8896075,138.463583 Z M161.202857,26.6928333 C154.885941,25.01975 148.569024,23.341 142.249274,21.67925 C133.165607,19.29075 124.074857,16.932 114.996857,14.52225 C113.862107,14.2205 113.041857,14.0235833 112.374607,15.3906667 C109.165857,21.964 105.857941,28.48775 102.598191,35.037 C102.497607,35.2395833 102.518857,35.5016667 102.440941,36.01025 C122.112774,33.0295833 141.652857,30.0673333 161.190107,27.1065 L161.202857,26.6928333 L161.202857,26.6928333 Z M124.555107,11.7413333 L176.041024,25.9845 C173.088691,17.5709167 170.350274,9.76933333 167.533941,1.74533333 L124.630191,11.25825 L124.555107,11.7413333 L124.555107,11.7413333 Z M45.2543575,155.84325 C38.8779408,155.108 32.3315241,155.78375 25.8644408,155.895667 C20.5519408,155.984917 15.2394408,156.1875 9.92694081,156.35325 C9.38010748,156.37025 8.83469081,156.48075 8.28927414,157.070083 C52.2101908,161.13025 96.1296908,165.190417 140.049191,169.253417 L140.138441,168.666917 C126.059607,166.7445 111.979357,164.822083 97.9005241,162.901083 C80.3565241,160.5055 62.8422741,157.8705 45.2543575,155.84325 L45.2543575,155.84325 Z M1.73010748,135.9915 C7.38969081,122.859 13.0251908,109.718 18.7074408,96.5954167 C19.2755241,95.2793333 19.2316075,94.3854167 18.1195241,93.32575 C15.7423575,91.0633333 13.5337741,88.62525 10.9356075,85.92225 C7.42369081,103.26225 3.99819081,120.173 0.569857477,137.082333 L0.953774143,137.26225 C1.21585748,136.8415 1.53602414,136.443417 1.73010748,135.9915 L1.73010748,135.9915 Z M113.278441,8.27475 C122.822524,5.81258333 132.505441,3.88733333 142.131691,1.73966667 C142.755024,1.59941667 143.364191,1.394 143.977607,1.21833333 L143.882691,0.748 C130.323774,2.57125 116.766274,4.39591667 102.524524,6.31266667 C106.407607,8.00841667 109.399607,9.27491667 113.278441,8.27475 L113.278441,8.27475 Z" id="Shape"></path>
                </g>
            </g>
        </g>
    </g>
</svg>