<?xml version="1.0" encoding="UTF-8" standalone="no"?>
<svg width="286px" height="106px" viewBox="0 0 286 106" version="1.1" xmlns="http://www.w3.org/2000/svg" xmlns:xlink="http://www.w3.org/1999/xlink">
    <!-- Generator: Sketch 39.1 (31720) - http://www.bohemiancoding.com/sketch -->
    <title>LaTeX_logo</title>
    <desc>Created with Sketch.</desc>
    <defs></defs>
    <g id="Page-1" stroke="none" stroke-width="1" fill="none" fill-rule="evenodd">
        <g id="Artboard" transform="translate(-1820.000000, -8251.000000)" fill="#FFFFFF">
            <g id="Group-5" transform="translate(98.000000, 7782.000000)">
                <g id="LaTeX" transform="translate(1656.000000, 388.000000)">
                    <g id="LaTeX_logo" transform="translate(66.000000, 81.000000)">
                        <g id="LaTeX-logo">
                            <g id="Group">
                                <path d="M62.6808,50.512 L59.8108,50.512 C58.6628,62.2216 57.0556,76.4568 36.8508,76.4568 L27.552,76.4568 C22.1564,76.4568 21.9268,75.6532 21.9268,71.8648 L21.9268,10.906 C21.9268,7.0028 21.9268,5.3956 32.718,5.3956 L36.5064,5.3956 L36.5064,1.9516 C32.3736,2.296 22.0416,2.296 17.3348,2.296 C12.8576,2.296 3.9032,2.296 0,1.9516 L0,5.3956 L2.6404,5.3956 C11.48,5.3956 11.7096,6.6584 11.7096,10.7912 L11.7096,71.0612 C11.7096,75.194 11.48,76.4568 2.6404,76.4568 L0,76.4568 L0,80.0156 L59.5812,80.0156 L62.6808,50.512 L62.6808,50.512 Z" id="Shape"></path>
                                <path d="M60.7292,1.8368 C60.27,0.4592 60.0404,0 58.548,0 C57.0556,0 56.7112,0.4592 56.252,1.8368 L37.7692,48.6752 C36.9656,50.6268 35.588,54.1856 28.4704,54.1856 L28.4704,57.0556 L46.2644,57.0556 L46.2644,54.1856 C42.7056,54.1856 40.5244,52.5784 40.5244,50.2824 C40.5244,49.7084 40.6392,49.4788 40.8688,48.6752 L44.772,38.8024 L67.5024,38.8024 L72.0944,50.512 C72.324,50.9712 72.5536,51.5452 72.5536,51.8896 C72.5536,54.1856 68.1912,54.1856 66.01,54.1856 L66.01,57.0556 L88.6256,57.0556 L88.6256,54.1856 L87.0184,54.1856 C81.6228,54.1856 81.0488,53.382 80.2452,51.086 L60.7292,1.8368 L60.7292,1.8368 Z M56.1372,9.9876 L66.3544,35.9324 L45.92,35.9324 L56.1372,9.9876 L56.1372,9.9876 Z" id="Shape"></path>
                                <path d="M152.684,2.6404 L82.7708,2.6404 L80.7044,28.3556 L83.4596,28.3556 C85.0668,9.8728 86.7888,6.0844 104.1236,6.0844 C106.19,6.0844 109.1748,6.0844 110.3228,6.314 C112.7336,6.7732 112.7336,8.036 112.7336,10.6764 L112.7336,70.9464 C112.7336,74.8496 112.7336,76.4568 100.6796,76.4568 L96.0876,76.4568 L96.0876,80.0156 C100.7944,79.6712 112.3892,79.6712 117.67,79.6712 C122.9508,79.6712 134.7752,79.6712 139.482,80.0156 L139.482,76.4568 L134.89,76.4568 C122.836,76.4568 122.836,74.8496 122.836,70.9464 L122.836,10.6764 C122.836,8.3804 122.836,6.7732 124.9024,6.314 C126.1652,6.0844 129.2648,6.0844 131.446,6.0844 C148.666,6.0844 150.388,9.8728 151.9952,28.3556 L154.8652,28.3556 L152.684,2.6404 L152.684,2.6404 Z" id="Shape"></path>
                                <path d="M214.2168,76.342 L211.3468,76.342 C208.4768,93.9064 205.8364,102.2868 186.2056,102.2868 L171.052,102.2868 C165.6564,102.2868 165.4268,101.4832 165.4268,97.6948 L165.4268,67.158 L175.644,67.158 C186.7796,67.158 188.0424,70.8316 188.0424,80.5896 L190.9124,80.5896 L190.9124,50.2824 L188.0424,50.2824 C188.0424,60.0404 186.7796,63.5992 175.644,63.5992 L165.4268,63.5992 L165.4268,36.162 C165.4268,32.3736 165.6564,31.57 171.052,31.57 L185.7464,31.57 C203.3108,31.57 206.2956,37.884 208.1324,53.8412 L211.0024,53.8412 L207.788,28.126 L143.5,28.126 L143.5,31.57 L146.1404,31.57 C154.98,31.57 155.2096,32.8328 155.2096,36.9656 L155.2096,96.8912 C155.2096,101.024 154.98,102.2868 146.1404,102.2868 L143.5,102.2868 L143.5,105.8456 L209.3952,105.8456 L214.2168,76.342 L214.2168,76.342 Z" id="Shape"></path>
                                <path d="M264.4992,12.8576 C266.91,9.184 270.8132,5.5104 281.0304,5.3956 L281.0304,1.9516 L253.708,1.9516 L253.708,5.3956 C258.3,5.5104 260.8256,8.036 260.8256,10.6764 C260.8256,11.8244 260.596,12.054 259.7924,13.3168 L246.7052,32.6032 L232.0108,10.5616 C231.7812,10.2172 231.2072,9.2988 231.2072,8.8396 C231.2072,7.462 233.7328,5.5104 238.5544,5.3956 L238.5544,1.9516 C234.6512,2.296 226.2708,2.296 221.9084,2.296 C218.3496,2.296 211.232,2.1812 206.9844,1.9516 L206.9844,5.3956 L209.1656,5.3956 C215.4796,5.3956 217.6608,6.1992 219.842,9.4136 L240.8504,41.2132 L222.138,68.88 C220.5308,71.176 217.0868,76.4568 205.6068,76.4568 L205.6068,80.0156 L232.9292,80.0156 L232.9292,76.4568 C227.6484,76.342 225.6968,73.2424 225.6968,71.176 C225.6968,70.1428 226.0412,69.6836 226.8448,68.4208 L243.0316,44.4276 L261.17,71.75 C261.3996,72.2092 261.744,72.6684 261.744,73.0128 C261.744,74.3904 259.2184,76.342 254.282,76.4568 L254.282,80.0156 C258.3,79.6712 266.6804,79.6712 270.928,79.6712 C275.7496,79.6712 281.0304,79.786 285.852,80.0156 L285.852,76.4568 L283.6708,76.4568 C277.7012,76.4568 275.2904,75.8828 272.8796,72.324 L248.7716,35.8176 L264.4992,12.8576 Z" id="Shape"></path>
                            </g>
                        </g>
                    </g>
                </g>
            </g>
        </g>
    </g>
</svg>