<?xml version="1.0" encoding="UTF-8" standalone="no"?>
<svg width="170px" height="170px" viewBox="0 0 170 170" version="1.1" xmlns="http://www.w3.org/2000/svg" xmlns:xlink="http://www.w3.org/1999/xlink">
    <!-- Generator: Sketch 39.1 (31720) - http://www.bohemiancoding.com/sketch -->
    <title>git-original</title>
    <desc>Created with Sketch.</desc>
    <defs></defs>
    <g id="Page-1" stroke="none" stroke-width="1" fill="none" fill-rule="evenodd">
        <g id="Artboard" transform="translate(-1179.000000, -8595.000000)" fill="#F34F29">
            <g id="Group-5" transform="translate(98.000000, 7782.000000)">
                <g id="git-original" transform="translate(1081.000000, 813.000000)">
                    <path d="M166.427331,77.4628405 L92.5358188,3.57400943 C88.2832628,-0.681227889 81.3815736,-0.681227889 77.1223143,3.57400943 L61.7798644,18.9191406 L81.2434861,38.3827624 C85.768195,36.8557569 90.9538466,37.880017 94.5588665,41.4850369 C98.1826555,45.1128479 99.1988716,50.342741 97.6343278,54.8821971 L116.392765,73.6419752 C120.930881,72.0774315 126.168818,73.0882849 129.791266,76.7187773 C134.85894,81.7824292 134.85894,89.9912566 129.791266,95.0575899 C124.723592,100.125264 116.517446,100.125264 111.447091,95.0575899 C107.636951,91.2447686 106.694471,85.6475361 108.625013,80.9525641 L91.1321536,63.4597045 L91.1294723,109.49912 C92.3655557,110.109118 93.5305845,110.924236 94.5602071,111.949836 C99.6251997,117.013488 99.6251997,125.219634 94.5602071,130.294012 C89.4938738,135.357664 81.2823651,135.357664 76.2213945,130.294012 C71.1564018,125.220975 71.1564018,117.014829 76.2213945,111.949836 C77.4735657,110.699006 78.9214726,109.753844 80.4672472,109.121055 L80.4672472,62.6553118 C78.9214726,62.0225228 77.4762471,61.0840647 76.2213945,59.8251902 C72.3844413,55.9909183 71.4607304,50.3601695 73.4288112,45.6464284 L54.2400236,26.4576408 L3.57400943,77.1209736 C-0.682568544,81.3802329 -0.682568544,88.2819222 3.57400943,92.5385001 L77.4668625,166.427331 C81.7220998,170.682569 88.6211078,170.682569 92.8830483,166.427331 L166.428672,92.8817077 C170.683909,88.6237891 170.683909,81.7180778 166.427331,77.4628405 L166.427331,77.4628405 Z" id="Shape"></path>
                </g>
            </g>
        </g>
    </g>
</svg>