<?xml version="1.0" encoding="UTF-8" standalone="no"?>
<svg width="258px" height="86px" viewBox="0 0 258 86" version="1.1" xmlns="http://www.w3.org/2000/svg" xmlns:xlink="http://www.w3.org/1999/xlink">
    <!-- Generator: Sketch 39.1 (31720) - http://www.bohemiancoding.com/sketch -->
    <title>[Obj-C]</title>
    <desc>Created with Sketch.</desc>
    <defs></defs>
    <g id="Page-1" stroke="none" stroke-width="1" fill="none" fill-rule="evenodd">
        <g id="Artboard" transform="translate(-411.000000, -9032.000000)" fill="#FFFFFF">
            <g id="Group-5" transform="translate(98.000000, 7782.000000)">
                <path d="M313,1326.39894 L330.245503,1326.39894 L330.245503,1320.25608 L321.417989,1320.25608 L321.417989,1256.68889 L330.245503,1256.68889 L330.245503,1250.54603 L313,1250.54603 L313,1326.39894 Z M336.934392,1283.71746 C336.934392,1291.30127 337.161902,1296.42785 337.616931,1299.09735 C337.859613,1300.52311 338.162961,1301.70617 338.526984,1302.64656 C338.921342,1303.55662 339.361197,1304.51216 339.846561,1305.51323 C341.454329,1308.57709 344.032786,1311.27688 347.582011,1313.6127 C351.070564,1316.03952 355.423607,1317.31358 360.64127,1317.43492 C365.919603,1317.31358 370.318148,1316.03952 373.837037,1313.6127 C377.325591,1311.27688 379.843379,1308.57709 381.390476,1305.51323 C382.51288,1303.90546 383.286418,1301.76686 383.711111,1299.09735 C384.105469,1296.42785 384.302646,1291.30127 384.302646,1283.71746 C384.302646,1276.01231 384.105469,1270.85539 383.711111,1268.24656 C383.286418,1265.63773 382.51288,1263.52946 381.390476,1261.92169 C379.843379,1258.85783 377.325591,1256.1277 373.837037,1253.73122 C370.318148,1251.3044 365.919603,1250.06067 360.64127,1250 C355.423607,1250.06067 351.070564,1251.3044 347.582011,1253.73122 C344.032786,1256.1277 341.454329,1258.85783 339.846561,1261.92169 C338.845498,1263.52946 338.102295,1265.63773 337.616931,1268.24656 C337.161902,1270.85539 336.934392,1276.01231 336.934392,1283.71746 L336.934392,1283.71746 Z M347.035979,1283.71746 C347.035979,1277.19538 347.278657,1272.75133 347.764021,1270.38519 C348.188715,1268.14038 349.053256,1266.30512 350.357672,1264.87937 C351.419406,1263.51428 352.814806,1262.37672 354.543915,1261.46667 C356.242689,1260.58694 358.27512,1260.11676 360.64127,1260.05608 C363.037754,1260.11676 365.115688,1260.58694 366.875132,1261.46667 C368.543571,1262.37672 369.878302,1263.51428 370.879365,1264.87937 C372.183781,1266.30512 373.078657,1268.14038 373.564021,1270.38519 C374.01905,1272.75133 374.246561,1277.19538 374.246561,1283.71746 C374.246561,1290.23954 374.01905,1294.65325 373.564021,1296.95873 C373.078657,1299.26421 372.183781,1301.1298 370.879365,1302.55556 C369.878302,1303.92064 368.543571,1305.02786 366.875132,1305.87725 C365.115688,1306.87831 363.037754,1307.37884 360.64127,1307.37884 C358.27512,1307.37884 356.242689,1306.87831 354.543915,1305.87725 C352.814806,1305.02786 351.419406,1303.92064 350.357672,1302.55556 C349.053256,1301.1298 348.188715,1299.26421 347.764021,1296.95873 C347.278657,1294.65325 347.035979,1290.23954 347.035979,1283.71746 L347.035979,1283.71746 Z M395.177778,1316.88889 L404.687831,1316.88889 L404.687831,1311.9291 C407.842697,1315.47832 411.907559,1317.31358 416.88254,1317.43492 C419.825059,1317.37425 422.342847,1316.78272 424.435979,1315.66032 C426.559446,1314.56825 428.273362,1313.11218 429.577778,1311.29206 C430.882193,1309.80564 431.77707,1307.78837 432.262434,1305.24021 C432.717463,1302.81339 432.944974,1298.8092 432.944974,1293.22751 C432.944974,1287.55482 432.717463,1283.52029 432.262434,1281.12381 C431.77707,1278.69699 430.882193,1276.7404 429.577778,1275.25397 C426.908276,1271.28005 422.676572,1269.21728 416.88254,1269.06561 C414.45572,1269.06561 412.286782,1269.56613 410.375661,1270.5672 C408.312864,1271.62893 406.41694,1272.994 404.687831,1274.66243 L404.687831,1250.54603 L395.177778,1250.54603 L395.177778,1316.88889 Z M414.015873,1278.57566 C416.260681,1278.57566 418.035267,1278.95485 419.339683,1279.71323 C420.644098,1280.53228 421.569309,1281.65467 422.115344,1283.08042 C422.722049,1284.50618 423.131569,1286.05325 423.343915,1287.72169 C423.404586,1289.51147 423.434921,1291.34673 423.434921,1293.22751 C423.434921,1295.01729 423.404586,1296.76154 423.343915,1298.46032 C423.131569,1300.2501 422.722049,1301.85784 422.115344,1303.2836 C421.569309,1304.64868 420.644098,1305.77107 419.339683,1306.65079 C418.035267,1307.50018 416.260681,1307.92487 414.015873,1307.92487 C411.892406,1307.92487 410.208825,1307.46985 408.965079,1306.55979 C407.660664,1305.68007 406.705118,1304.52734 406.098413,1303.10159 C405.522043,1301.67583 405.142858,1300.08325 404.960847,1298.32381 C404.778835,1296.5947 404.687831,1294.89595 404.687831,1293.22751 C404.687831,1291.4074 404.778835,1289.66315 404.960847,1287.99471 C405.142858,1286.32627 405.522043,1284.7792 406.098413,1283.35344 C406.705118,1281.92768 407.660664,1280.77496 408.965079,1279.89524 C410.208825,1279.01552 411.892406,1278.57566 414.015873,1278.57566 L414.015873,1278.57566 Z M444.775661,1322.03069 C444.714991,1325.36757 442.940405,1327.03598 439.451852,1327.03598 L436.767196,1327.03598 L436.767196,1336 L440.498413,1336 C444.593671,1335.93933 447.915331,1334.6956 450.463492,1332.26878 C452.950982,1329.90263 454.225044,1326.73265 454.285714,1322.75873 L454.285714,1269.65714 L444.775661,1269.65714 L444.775661,1322.03069 Z M444.775661,1260.05608 L454.285714,1260.05608 L454.285714,1250.54603 L444.775661,1250.54603 L444.775661,1260.05608 Z M466.389418,1295.82116 L494.419048,1295.82116 L494.419048,1286.31111 L466.389418,1286.31111 L466.389418,1295.82116 Z M540.422222,1298.32381 C537.631379,1304.36052 533.414843,1307.37884 527.772487,1307.37884 C525.406337,1307.37884 523.373906,1306.87831 521.675132,1305.87725 C519.946023,1305.02786 518.550623,1303.92064 517.488889,1302.55556 C516.184473,1301.1298 515.319932,1299.26421 514.895238,1296.95873 C514.409874,1294.65325 514.167196,1290.23954 514.167196,1283.71746 C514.167196,1277.19538 514.409874,1272.75133 514.895238,1270.38519 C515.319932,1268.14038 516.184473,1266.30512 517.488889,1264.87937 C518.550623,1263.51428 519.946023,1262.37672 521.675132,1261.46667 C523.373906,1260.58694 525.406337,1260.11676 527.772487,1260.05608 C530.988023,1260.11676 533.718155,1261.04197 535.962963,1262.83175 C538.116766,1264.71253 539.603171,1266.98764 540.422222,1269.65714 L551.069841,1269.65714 C550.008108,1264.10579 547.459985,1259.4494 543.425397,1255.68783 C539.390809,1251.9566 534.173224,1250.06067 527.772487,1250 C522.554824,1250.06067 518.201781,1251.3044 514.713228,1253.73122 C511.164003,1256.1277 508.585546,1258.85783 506.977778,1261.92169 C505.976715,1263.52946 505.233512,1265.63773 504.748148,1268.24656 C504.293119,1270.85539 504.065608,1276.01231 504.065608,1283.71746 C504.065608,1291.30127 504.293119,1296.42785 504.748148,1299.09735 C504.99083,1300.52311 505.294178,1301.70617 505.658201,1302.64656 C506.052559,1303.55662 506.492414,1304.51216 506.977778,1305.51323 C508.585546,1308.57709 511.164003,1311.27688 514.713228,1313.6127 C518.201781,1316.03952 522.554824,1317.31358 527.772487,1317.43492 C533.536184,1317.43492 538.526258,1315.79684 542.742857,1312.52063 C546.838116,1309.21409 549.613749,1304.48187 551.069841,1298.32381 L540.422222,1298.32381 Z M561.990476,1320.25608 L553.11746,1320.25608 L553.11746,1326.39894 L570.362963,1326.39894 L570.362963,1250.54603 L553.11746,1250.54603 L553.11746,1256.68889 L561.990476,1256.68889 L561.990476,1320.25608 Z" id="[Obj-C]"></path>
            </g>
        </g>
    </g>
</svg>