<?xml version="1.0" encoding="UTF-8" standalone="no"?>
<svg width="228px" height="170px" viewBox="0 0 228 170" version="1.1" xmlns="http://www.w3.org/2000/svg" xmlns:xlink="http://www.w3.org/1999/xlink">
    <!-- Generator: Sketch 39.1 (31720) - http://www.bohemiancoding.com/sketch -->
    <title>sass-original</title>
    <desc>Created with Sketch.</desc>
    <defs></defs>
    <g id="Page-1" stroke="none" stroke-width="1" fill="none" fill-rule="evenodd">
        <g id="Artboard" transform="translate(-199.000000, -7821.000000)" fill="#CB6699">
            <g id="Group-5" transform="translate(98.000000, 7782.000000)">
                <g id="sass-original" transform="translate(101.000000, 39.000000)">
                    <path d="M0.39626947,70.8140426 C0.39626947,72.0854255 0.770825545,72.9245745 0.980721703,73.7402128 C2.34866563,79.0445745 5.28902129,83.5965957 8.77764019,87.7489362 C13.7463889,93.666383 19.831568,98.43 26.065122,102.909681 C31.4717575,106.794362 36.9887695,110.592234 42.4171184,114.447979 C43.3489849,115.109894 44.2301869,115.871277 45.2416693,116.683298 C44.371324,117.153511 43.6475441,117.56766 42.8948131,117.949255 C35.731202,121.580745 28.8390083,125.651702 22.4860306,130.583511 C18.6572352,133.556702 14.9551012,136.71617 12.3404465,140.845 C8.13347612,147.485851 6.64429907,154.560745 9.78007529,162.114894 C10.6956568,164.321277 12.0925519,166.227447 14.0630426,167.636277 C14.7017783,168.092021 15.4183204,168.544149 16.1656231,168.721383 C18.0800208,169.171702 20.0306075,169.466489 21.968528,169.822766 L27.4565888,169.819149 C33.5254829,169.278404 39.0497326,167.200426 44.0420042,163.757021 C51.844351,158.374894 57.1008022,151.158936 59.3608048,141.897553 C61.003785,135.166277 61.0707347,128.427766 59.1346236,121.727234 C58.9554881,121.105106 58.7293069,120.495638 58.4940784,119.893404 C58.2588499,119.29117 57.9820042,118.705213 57.6563032,117.954681 L70.0980789,110.80383 L70.2844522,110.962979 C70.058271,111.70266 69.8176142,112.440532 69.6131464,113.187447 C68.1348261,118.584043 67.1522949,124.074681 67.5051376,129.675638 C67.8815031,135.643723 69.5480062,141.230213 73.0438629,146.216277 C75.8702233,150.249255 82.6049948,150.399362 85.6086812,146.351915 C86.674447,144.914149 87.7076428,143.411277 88.4838967,141.807128 C90.5122897,137.620426 92.3904984,133.359574 94.328419,129.12766 L94.6667861,128.353617 C94.5274585,130.357447 94.364608,132.117128 94.2904206,133.878617 C94.1746158,136.629362 94.3356568,139.36383 95.2765706,141.980745 C96.0817757,144.219681 97.4515291,145.892553 100.017329,146.18734 C101.772495,146.388085 103.171199,145.585106 104.461337,144.566915 C106.477064,142.977234 108.114616,141.013191 109.330566,138.781489 C112.77033,132.467979 116.302375,126.192447 119.420057,119.719787 C122.792871,112.719043 125.742274,105.513936 128.874431,98.3938298 L129.391934,97.1314894 C130.131999,100.037766 130.647692,102.884362 131.597653,105.579043 C132.701417,108.705957 134.067552,111.758723 135.55492,114.726489 C136.258795,116.128085 136.17737,117.037766 135.202077,118.213298 C131.119958,123.132447 127.108409,128.111277 123.09324,133.084681 C122.2048,134.182447 121.319979,135.300106 120.579914,136.499149 C120.13298,137.227979 119.836231,138.115957 119.711379,138.965957 C119.470722,140.59 120.474966,142.15617 122.213847,142.530532 C123.802544,142.87234 125.49438,142.998936 127.113837,142.879574 C132.717702,142.467234 137.805875,140.501383 142.304167,137.170106 C148.132404,132.855 150.003375,126.966489 148.592004,119.987447 C148.21021,118.093936 147.535286,116.252872 146.878455,114.428085 C146.583515,113.605213 146.563611,113.028298 147.101018,112.261489 C151.76035,105.611596 155.74114,98.5565957 159.443274,91.3388298 C159.589839,91.0548936 159.740023,90.7709574 159.996965,90.4671277 C161.19663,96.7064894 163.002461,102.719787 166.237757,108.176064 C164.587539,109.765745 162.953606,111.207128 161.475286,112.795 C158.220086,116.29266 155.397344,120.090532 153.924452,124.722128 C153.291145,126.718723 152.804403,128.747872 153.086677,130.880106 C153.524564,134.191489 156.238738,136.343617 159.497557,135.589468 C166.471176,133.976277 172.491215,130.692021 176.889987,124.874043 C179.850247,120.956809 180.119855,116.587447 178.880382,112.010106 C178.540205,110.765851 178.136698,109.541489 177.70243,108.114574 C179.423217,107.581064 181.100576,106.940851 182.835839,106.544787 C191.845088,104.490319 200.756628,104.848404 209.438367,108.100106 C214.506636,109.999043 218.60142,113.176596 221.029701,118.175319 C223.995389,124.286277 222.356028,130.084362 216.592931,133.94734 C216.055524,134.307234 215.440312,134.59117 214.995187,135.041489 C214.72196,135.318191 214.5573,135.871596 214.62425,136.253191 C214.662248,136.475638 215.250319,136.754149 215.588686,136.750532 C217.48318,136.736064 219.019403,135.743191 220.494104,134.723191 C224.189001,132.167766 226.88508,128.729787 227.465914,124.203085 L227.579909,123.863085 L227.440582,120.915213 C227.384489,120.745213 227.482199,120.577021 227.469533,120.448617 C226.684232,113.856596 223.161233,108.743936 218.036872,104.736277 C212.101877,100.097447 205.093879,98.1876596 197.682373,97.8856383 C191.64243,97.6396809 185.705626,98.5367021 180.013097,100.60383 C178.390021,101.191596 176.78142,101.887872 175.149296,102.544362 C174.930353,102.148298 174.695125,101.768511 174.501513,101.376064 C172.825963,97.9471277 170.795761,94.6701064 170.347017,90.7384043 C170.028554,87.9460638 169.637713,85.1573404 170.301781,82.3957447 C170.940517,79.7390426 171.772863,77.1275532 172.556355,74.5070213 C172.959862,73.1578723 172.675779,72.4019149 171.387451,71.7942553 C170.938707,71.5826596 170.450156,71.3981915 169.965223,71.3276596 C166.798686,70.8682979 163.675576,71.1305319 160.608559,72.0221277 C159.522889,72.338617 158.733969,72.9462766 158.493313,74.1471277 C158.355794,74.8361702 158.07533,75.4962766 157.879909,76.1762766 C157.078323,79.0029787 156.510156,81.8839362 155.21459,84.5768085 C151.968437,91.3315957 148.262684,97.831383 144.470078,104.284149 C144.059333,104.980426 143.626874,105.664043 143.109372,106.508617 C141.777617,103.723511 140.357199,101.224149 139.92655,98.2943617 C139.439808,94.9811702 139.056205,91.6734043 139.881314,88.3855319 C140.494717,85.9331915 141.296303,83.5260638 142.034559,81.1062766 C142.383782,79.9560638 142.222741,79.3520213 141.180498,78.7461702 C140.653949,78.4405319 140.05864,78.1692553 139.46514,78.0806383 C136.180989,77.5941489 132.945693,77.8491489 129.777347,78.872766 C128.794816,79.1910638 128.279123,79.8258511 127.978754,80.838617 C127.095742,83.8262766 126.343011,86.8862766 125.103538,89.7274468 C120.084125,101.229574 114.919956,112.672021 109.761215,124.11266 C108.684592,126.501702 107.423406,128.807553 106.209265,131.133298 C105.901659,131.722872 105.452915,132.241915 105.069312,132.795319 C104.761706,132.431809 104.642282,132.182234 104.644091,131.93266 C104.653139,130.46234 104.477622,128.948617 104.758087,127.527128 C105.606719,123.226489 106.583821,118.949362 107.613398,114.688511 C108.46384,111.169149 109.453609,107.68234 110.396332,104.186489 C110.712985,103.016383 110.718414,101.922234 109.87702,100.938404 C108.46384,99.2908511 105.510818,98.9291489 103.759271,100.198723 L102.984826,100.636383 L103.13501,99.3885106 C103.504138,96.7137234 103.578326,94.0479787 102.843689,91.4129787 C101.928107,88.1287234 99.5830607,86.2388298 96.1740576,86.3437234 C94.5853609,86.3925532 92.9170483,86.6638298 91.4459657,87.2425532 C85.2594574,89.6659574 80.5024143,93.9575532 76.452866,99.1208511 C76.0855478,99.5892553 75.6006153,100.016064 75.0831127,100.303617 C69.8483749,103.204468 64.597352,106.069149 59.3481386,108.944681 L53.5054258,112.143936 C51.9384424,110.650106 50.5144055,109.100213 48.898567,107.785426 C43.9641978,103.763298 38.9502129,99.8406383 33.9814642,95.8637234 C29.5772638,92.3389362 25.3105815,88.6676596 22.0463344,83.9998936 C19.618053,80.5275532 18.052879,76.7278723 17.9026947,72.4344681 C17.7127025,66.9637234 19.2652103,61.965 22.0517627,57.3117021 C25.6163785,51.3580851 30.4783697,46.58 35.8234839,42.252234 C41.478014,37.6767021 47.5939538,33.7920213 53.9324559,30.2455319 C62.8005685,25.2847872 71.9220042,20.8937234 81.7020794,17.9946809 C91.7300493,15.0214894 101.904585,13.3196809 112.399393,14.5060638 C116.524938,14.9726596 120.531059,15.9167021 124.20967,17.9331915 C127.026983,19.4758511 129.337651,21.4959574 130.412464,24.653617 C131.472801,27.7606383 131.440231,30.9092553 130.705594,34.0651064 C129.212799,40.456383 125.711513,45.7245745 121.305504,50.4321277 C114.078562,58.1490426 105.262923,63.402766 95.3380919,66.8732979 C89.6111838,68.8753191 83.7196158,70.132234 77.6688162,70.6404255 C72.7308281,71.0545745 67.8959787,70.6169149 63.2203609,68.9006383 C60.1243925,67.7630851 57.4283126,66.0232979 55.2605919,63.498617 C54.8733697,63.0464894 54.3775805,62.556383 53.6556101,62.9795745 C52.9481153,63.3955319 52.8232632,64.0682979 53.0603011,64.7501064 C53.4565706,65.882234 53.8220794,67.061383 54.4391018,68.0741489 C55.9898001,70.6151064 58.2516121,72.4579787 60.7414148,74.038617 C65.5237902,77.0787234 70.8689045,78.1005319 76.4112487,78.3374468 C84.8215706,78.7009574 93.0274247,77.4458511 101.117474,75.1906383 C112.667191,71.9714894 122.709637,66.2855319 130.763497,57.3153191 C137.469317,49.8461702 142.25893,41.4167021 143.284888,31.2384043 C143.786106,26.2704255 143.252318,21.4037234 140.925366,16.8715957 C138.401184,11.9614894 134.387825,8.31010638 129.589164,5.79446809 C122.60107,2.13223404 115.059283,0 107.275031,0 L99.4763032,0 C90.0490706,0 80.9348728,2.70010638 72.0758074,5.92106383 C65.369987,8.36074468 58.794447,11.2398936 52.4107087,14.4264894 C38.5087072,21.3693617 25.562095,29.7409574 14.9279595,41.2521277 C9.62989097,46.9869149 5.14426532,53.3148936 2.56399013,60.7659574 C1.80944964,62.9470213 1.09290758,65.2854255 0.553691589,67.5406383 L0.39626947,70.8140426 Z M50.92696,132.670532 C50.3244133,140.734681 46.6675156,147.272447 40.6909034,152.567766 C37.328946,155.544574 33.4730088,157.664149 28.9819548,158.409255 C27.3534502,158.678723 25.686947,158.74383 24.1072975,158.069255 C21.8545327,157.107128 21.3496963,155.108723 21.3062695,152.980106 C21.2393198,149.58734 22.4281282,146.520106 24.0584424,143.60117 C26.1863551,139.796064 29.3058463,136.895213 32.6370431,134.186064 C37.884447,129.91617 43.5769756,126.302766 49.4070223,122.891915 L49.8467186,122.711064 C50.7478245,126.038723 51.1766641,129.324787 50.92696,132.670532 L50.92696,132.670532 Z M96.449094,97.6234043 C96.0238733,100.198723 95.4918951,102.775851 94.7391641,105.271596 C92.1371755,113.910851 88.795122,122.282447 85.1816511,130.541915 C84.5139642,132.070106 83.5422897,133.464468 82.6972767,134.913085 C82.5669964,135.13734 82.3733853,135.330851 82.1852025,135.517128 C81.1393406,136.549787 80.1477622,136.495532 79.6194029,135.144574 C79.00419,133.574787 78.6260151,131.894681 78.3003141,130.23266 C78.0813707,129.116809 78.1338448,127.944894 78.0650857,126.801915 C78.1356542,118.674468 80.6164097,111.288511 84.8251895,104.412553 C86.5604517,101.576809 88.4495171,98.8748936 91.3355893,97.0808511 C92.2222196,96.5292553 93.2174169,96.0861702 94.2216615,95.8040426 C95.7596937,95.3718085 96.7042264,96.0825532 96.449094,97.6234043 L96.449094,97.6234043 Z M127.506488,137.171915 L138.668982,124.145213 C139.134011,128.982979 130.906443,138.640426 127.506488,137.171915 L127.506488,137.171915 Z M163.158074,128.406064 C162.369154,128.858191 161.509665,129.183723 160.700841,129.601489 C159.960776,129.984894 159.716501,129.597872 159.694787,128.961277 C159.680312,128.529043 159.743642,128.076915 159.863066,127.65734 C161.370337,122.343936 164.144224,117.808191 168.271578,114.11883 L168.56109,113.970532 C170.524343,119.459362 168.255293,125.487128 163.158074,128.406064 L163.158074,128.406064 Z" id="Shape"></path>
                </g>
            </g>
        </g>
    </g>
</svg>