<?xml version="1.0" encoding="UTF-8" standalone="no"?>
<svg width="165px" height="170px" viewBox="0 0 165 170" version="1.1" xmlns="http://www.w3.org/2000/svg" xmlns:xlink="http://www.w3.org/1999/xlink">
    <!-- Generator: Sketch 39.1 (31720) - http://www.bohemiancoding.com/sketch -->
    <title>postgresql-plain</title>
    <desc>Created with Sketch.</desc>
    <defs></defs>
    <g id="Page-1" stroke="none" stroke-width="1" fill="none" fill-rule="evenodd">
        <g id="Artboard" transform="translate(-1648.000000, -7821.000000)" fill="#336791">
            <g id="Group-5" transform="translate(98.000000, 7782.000000)">
                <g id="postgresql-plain" transform="translate(1550.000000, 39.000000)">
                    <path d="M164.785738,102.81377 C164.158689,98.7477049 160.743361,96.0848361 156.770656,95.905082 C155.332623,95.8395902 153.872295,95.990082 152.438443,96.172623 C150.706393,96.3927869 148.995246,96.7829508 147.267377,97.0407377 C146.073197,97.2190984 144.862295,97.3013115 143.669508,97.4239344 L143.640246,97.2692623 C145.866967,93.0638525 148.187049,88.9044262 150.293934,84.6390984 C151.908934,81.3672951 153.29123,77.9770492 154.719508,74.6146721 C157.082787,69.0436885 158.970902,63.299918 160.534344,57.4627869 C162.032295,51.8736885 163.314262,46.2232787 163.716967,40.4251639 C163.878607,38.1092623 163.990082,35.7836066 163.977541,33.464918 C163.966393,31.6158197 163.767131,29.7639344 163.581803,27.9204098 C163.372787,25.8079508 162.73459,23.8055738 161.851148,21.8784426 C160.68623,19.3395902 158.880328,17.2563934 156.979672,15.2777049 C155.458033,13.6933607 153.784508,12.2497541 152.124918,10.807541 C149.758852,8.74942623 147.09877,7.10655738 144.335574,5.64762295 C141.196148,3.98942623 137.896475,2.69213115 134.456066,1.81565574 C132.375656,1.2847541 130.247869,0.890409836 128.140984,0.469590164 C127.382951,0.316311475 126.623525,0 125.865492,0 L111.595246,0 C111.079672,0 110.568279,0.266147541 110.048525,0.324672131 C106.631803,0.705081967 103.255492,1.34885246 99.9767213,2.36467213 C98.7504918,2.74508197 97.6301639,2.50540984 96.4652459,2.39811475 C95.5720492,2.31590164 94.6941803,2.07622951 93.8009836,2.03163934 C90.3981967,1.86163934 86.9912295,1.61221311 83.5898361,1.64844262 C80.3305738,1.68188525 77.1047541,2.21836066 73.95,3.11434426 C71.3094262,3.86401639 68.7259836,4.7795082 66.359918,6.16737705 C65.3468852,6.76098361 64.5442623,6.6495082 63.4963934,6.34713115 C59.9751639,5.33131148 56.4288525,4.37680328 52.8518852,3.57557377 C50.622377,3.07672131 48.3301639,2.82868852 46.0532787,2.59040984 C43.8711475,2.36327869 41.6722951,2.22672131 39.4790164,2.1807377 C37.3359016,2.1347541 35.177459,2.13614754 33.0440984,2.32565574 C29.6454918,2.62803279 26.3109836,3.31918033 23.0698361,4.43393443 C19.4705738,5.67131148 16.1709016,7.46467213 13.1959016,9.81959016 C10.1763115,12.2093443 7.7545082,15.1272131 5.80647541,18.4589344 C3.75393443,21.9745902 2.34655738,25.7382787 1.47147541,29.6914754 C0.997704918,31.8331967 0.698114754,34.0348361 0.373442623,36.21 C0.271721311,36.8872131 1.39344262,37.5644262 0,38.2388525 L0,47.7059016 C1.39344262,48.3357377 0.289836066,48.9641803 0.370655738,49.5954098 C0.564344262,51.1128689 0.735737705,52.6428689 0.992131148,54.1491803 C1.39762295,56.5333607 1.87836066,58.9105738 2.36885246,61.2794262 C3.05303279,64.5888525 3.76508197,67.8954918 4.52311475,71.1881967 C5.07491803,73.584918 5.70336066,75.9677049 6.36106557,78.3379508 C7.3657377,81.9581148 8.35508197,85.5852459 9.4907377,89.165 C10.5455738,92.4911475 11.7536885,95.769918 12.9520492,99.0486885 C14.6116393,103.584344 16.5986885,107.973689 18.9814754,112.180492 C21.042377,115.822951 23.3972951,119.234098 26.5562295,122.040492 C28.6380328,123.88959 30.9553279,125.310902 33.6530328,126.021557 C35.772459,126.578934 37.9267213,126.64582 40.0963115,126.201311 C42.6114754,125.685738 44.8381967,124.603033 46.8182787,122.981066 C47.0454098,122.794344 47.2948361,122.652213 47.5637705,122.995 C48.5879508,124.292295 49.9590984,125.157623 51.3929508,125.905902 C55.262541,127.923607 59.4790984,128.528361 63.762541,128.775 C64.7992623,128.834918 65.8471311,128.68582 66.8922131,128.656557 C68.9280328,128.60082 70.9067213,128.203689 72.8533607,127.640738 C73.8733607,127.345328 74.8696721,126.970492 75.9077869,126.620738 C75.9621311,127.725738 76.0318033,128.790328 76.0638525,129.854918 L76.2087705,135.66 C76.2352459,136.543443 76.270082,137.429672 76.3522951,138.308934 C76.5627049,140.576066 76.7689344,142.84459 77.0392623,145.104754 C77.227377,146.662623 77.422459,148.233033 77.7889344,149.753279 C78.5260656,152.823033 79.5251639,155.811967 80.7959836,158.710328 C82.0431148,161.554344 83.8364754,163.955246 86.2304098,165.935328 C89.3238525,168.493689 92.9495902,169.584754 96.8651639,169.786803 C98.4843443,169.871803 100.149508,169.792377 101.743607,169.502541 C104.269918,169.044098 106.790656,168.467213 109.250082,167.725902 C114.253934,166.21541 118.57918,163.606885 121.810574,159.391721 C123.649918,156.989426 125.16041,154.390656 126.130246,151.521557 C126.930082,149.151311 127.683934,146.757377 128.283115,144.331393 C128.756885,142.41959 128.990984,140.447869 129.279426,138.495656 C129.470328,137.203934 129.58459,135.899672 129.704426,134.598197 C129.899508,132.484344 130.09877,130.371885 130.239508,128.253852 C130.337049,126.77959 130.332869,125.298361 130.391393,123.821311 C130.409508,123.37123 130.481967,122.923934 130.52377,122.475246 C130.562787,122.06 130.771803,121.916475 131.19541,121.923443 C132.687787,121.945738 134.182951,121.984754 135.671148,121.917869 C137.339098,121.842623 139.022377,121.771557 140.663852,121.495656 C143.000656,121.104098 145.326311,120.609426 147.617131,120.008852 C150.32459,119.300984 152.807705,118.032951 155.197459,116.587951 C157.981557,114.906066 160.519016,112.932951 162.578525,110.391311 C164.369098,108.174344 165.217705,105.611803 164.785738,102.81377 L164.785738,102.81377 Z M160.031311,104.182131 C159.939344,105.457131 159.355492,106.54959 158.508279,107.483197 C154.510492,111.890656 149.495492,114.564672 143.758689,115.881475 C141.579344,116.380328 139.330328,116.639508 137.099426,116.845738 C135.200164,117.021311 133.273033,117.050574 131.366803,116.980902 C129.965,116.927951 128.574344,116.607459 127.141885,116.40123 C126.998361,117.711066 126.861803,119.075246 126.695984,120.436639 L126.028525,125.655082 C125.826475,127.309098 125.669016,128.968689 125.461393,130.621311 C125.257951,132.225164 125.004344,133.823443 124.791148,135.427295 C124.591885,136.921066 124.445574,138.421803 124.224016,139.912787 C123.882623,142.198033 123.556557,144.488852 123.110656,146.755984 C122.575574,149.46623 121.754836,152.091475 120.415738,154.535574 C118.782623,157.518934 116.466721,159.791639 113.51959,161.474918 C110.481885,163.211148 107.161311,164.114098 103.794754,164.869344 C101.411967,165.404426 98.9567213,165.492213 96.5432787,165.274836 C92.357377,164.89582 88.7845902,163.105246 86.0840984,159.859918 C83.5062295,156.762295 81.7616393,153.211803 81.137377,149.193115 C80.8391803,147.282705 80.6245902,145.355574 80.4531967,143.429836 C80.2636885,141.288115 80.1340984,139.139426 80.0365574,136.992131 C79.912541,134.265164 79.8219672,131.538197 79.7620492,128.81123 C79.6881967,125.458607 79.6645082,122.105984 79.6171311,118.753361 L79.6087705,118.625164 C77.9031967,119.647951 76.2268852,120.768279 74.4488525,121.690738 C72.3670492,122.772049 70.1054918,123.399098 67.7631148,123.576066 C65.9265574,123.71541 64.0663115,123.842213 62.2381148,123.695902 C59.2408197,123.454836 56.2463115,122.985246 53.562541,121.50959 C52.4742623,120.91041 51.3386066,120.181639 50.5889344,119.224344 C48.7913934,116.930738 49.652541,114.032377 52.3627869,112.637541 C54.2355738,111.671885 56.2797541,111.26918 58.31,110.79959 C60.0740984,110.391311 61.8298361,109.927295 63.5507377,109.365738 C65.2535246,108.808361 66.3278689,107.427459 67.3882787,106.073033 L69.0687705,103.911803 C68.3678689,103.837951 67.707377,103.762705 67.0468852,103.701393 C65.0417213,103.511885 63.1285246,102.960082 61.2989344,102.149098 C59.7327049,101.456557 59.7090164,101.381311 58.5608197,102.627049 C56.6434426,104.708852 54.7790164,106.839426 52.9006557,108.956066 C51.5183607,110.512541 50.1444262,112.07877 48.7690984,113.639426 C47.4063115,115.183361 46.129918,116.815082 44.662623,118.251721 C42.4832787,120.385082 39.8566393,121.668443 36.7227869,121.523525 C34.7120492,121.431557 32.8713115,120.726475 31.2159016,119.574098 C27.7991803,117.194098 25.4972131,113.865164 23.4014754,110.369016 C20.7163115,105.889098 18.6554098,101.116557 16.8913115,96.2130328 C15.6706557,92.8241803 14.4444262,89.432541 13.3784426,85.994918 C12.2204918,82.2590984 11.2046721,78.4759016 10.2055738,74.6940984 C9.45032787,71.8403279 8.78008197,68.9628689 8.1404918,66.0798361 C7.4145082,62.8010656 6.71639344,59.5167213 6.1004918,56.2156557 C5.6852459,53.987541 5.44418033,51.727377 5.10836066,49.4839344 C4.6554918,46.4601639 4.57188525,43.4085246 4.73631148,40.3722131 C4.88262295,37.6368852 5.27557377,34.9085246 5.6657377,32.1913115 C6.20639344,28.4318033 7.44516393,24.8840984 9.22737705,21.5342623 C10.3184426,19.4817213 11.6728689,17.6159016 13.2390984,15.882459 C15.81,13.0370492 18.9215574,10.9803279 22.3828689,9.43639344 C24.8018852,8.35786885 27.357459,7.70852459 29.9618033,7.20131148 C33.8272131,6.44885246 37.727459,6.47811475 41.6290984,6.55893443 C43.3346721,6.59377049 45.0332787,6.9045082 46.737459,7.07311475 C50.4063934,7.43819672 54.0028689,8.21016393 57.5533607,9.16327869 C60.1409836,9.85721311 62.6756557,10.7559836 65.242377,11.5363115 C65.5001639,11.6143443 65.8777869,11.607377 66.0881967,11.4694262 C69.5662295,9.1995082 73.367541,7.70155738 77.409918,6.84459016 C78.9440984,6.51991803 80.5270492,6.37778689 82.0960656,6.27745902 C84.0036885,6.15622951 85.9266393,6.0447541 87.830082,6.15483607 C90.1181148,6.28581967 92.395,6.62303279 94.6690984,6.93516393 C95.7727049,7.08565574 96.8498361,7.46885246 97.9562295,7.57336066 C98.4857377,7.62352459 99.0472951,7.23614754 99.607459,7.10655738 C102.462623,6.44745902 105.305246,5.71311475 108.185492,5.19196721 C110.33,4.80459016 112.520492,4.62204918 114.70123,4.49663934 C117.132787,4.35729508 119.582459,4.25557377 122.012623,4.37262295 C125.085164,4.52032787 128.13541,4.95786885 131.146639,5.65877049 C134.876885,6.52688525 138.455246,7.78795082 141.856639,9.53811475 C144.398279,10.8451639 146.814508,12.3612295 148.989672,14.2256557 C150.415164,15.4490984 151.874098,16.6572131 153.161639,18.02 C154.750164,19.7004918 156.370738,21.382377 157.367049,23.5352459 C158.116721,25.1586066 158.651803,26.8390984 158.799508,28.6171311 C158.983443,30.8271311 159.206393,33.0454918 159.185492,35.2582787 C159.165984,37.374918 158.877541,39.4901639 158.672705,41.6012295 C158.207295,46.4141803 157.16082,51.122623 155.89,55.7683607 C154.839344,59.6059016 153.611721,63.4016393 152.282377,67.1527869 C151.057541,70.609918 149.64459,74.0043443 148.216311,77.3848361 C147.161475,79.8846721 146.02582,82.3580328 144.79123,84.7742623 C142.454426,89.3531148 140.024262,93.8845902 137.213689,98.1972951 C136.72877,98.9427869 136.268934,99.7063934 135.795164,100.467213 C137.021393,101.294918 138.410656,101.586148 139.809672,101.736639 C141.14041,101.881557 142.497623,101.967951 143.826967,101.869016 C145.954754,101.711557 148.075574,101.407787 150.19082,101.110984 C152.286557,100.818361 154.340492,100.221967 156.491967,100.379426 C158.640656,100.535492 160.177623,102.168607 160.031311,104.182131 L160.031311,104.182131 Z M129.357459,99.509918 C128.444754,98.3310656 127.513934,97.1661475 126.620738,95.9733607 C125.218934,94.1005738 124.211475,92.0090164 123.199836,89.9077049 C122.241148,87.9164754 121.065082,86.0311475 120.054836,84.0622131 C118.292131,80.627377 116.497377,77.2036885 114.874016,73.7019672 C112.832623,69.3028689 111.223197,64.7477049 110.715984,59.8748361 C110.501393,57.812541 110.447049,55.7530328 110.863689,53.7102459 C111.531148,50.4481967 113.235328,47.8968033 116.100246,46.1466393 C118.757541,44.5232787 121.718607,43.9993443 124.752131,43.834918 C126.634672,43.7331967 128.525574,43.8168033 130.47918,43.8168033 L130.413689,43.4865574 C129.198607,40.9463115 128.062951,38.3628689 126.733607,35.882541 C124.858033,32.3822131 122.458525,29.2260656 119.785902,26.2998361 C117.80582,24.1330328 115.661311,22.1222951 113.311967,20.3456557 C111.001639,18.5968852 108.567295,17.0348361 105.969918,15.7570492 C102.872295,14.2340164 99.6464754,13.0565574 96.2618033,12.3054918 C93.0095082,11.5836885 89.7363115,11.1419672 86.4004098,11.1057377 C83.555,11.075082 80.7277049,11.2032787 77.9561475,11.8456557 C73.7730328,12.8140984 69.9466393,14.5363934 66.6177049,17.3260656 C64.7588525,18.8839344 63.1368852,20.6327049 61.7169672,22.5793443 C60.0504098,24.8687705 58.7057377,27.3407377 57.5561475,29.932541 C55.9787705,33.4886066 54.8960656,37.1895902 54.1561475,40.9936885 C53.7854918,42.8901639 53.4956557,44.8033607 53.2002459,46.7151639 C53.0971311,47.3840164 53.0887705,48.0681967 53.0288525,48.8345902 C53.5430328,48.5670492 53.9136885,48.3608197 54.2927049,48.1768852 L55.5259016,47.6236885 C59.6964754,45.7160656 64.017541,44.4884426 68.6618852,44.6291803 C70.635,44.6890984 72.5231148,45.0792623 74.277459,45.9431967 C77.642623,47.6027869 79.6115574,50.4245082 80.4671311,53.9959016 C81.0579508,56.4609016 81.4620492,58.9746721 81.855,61.4814754 C82.1629508,63.4392623 82.4778689,65.4179508 82.5140984,67.392459 C82.5656557,70.2782787 82.4193443,73.1696721 82.2618852,76.0540984 C82.1281148,78.5121311 81.6153279,80.9311475 80.7569672,83.2247541 C79.1963115,87.3953279 77.4572951,91.497623 75.832541,95.6445082 C75.2960656,97.0142623 74.8836066,98.4327869 74.3763934,99.9390984 C75.1595082,99.9390984 75.794918,99.9335246 76.4303279,99.9418852 C76.6783607,99.9460656 76.9319672,99.9530328 77.1716393,100.010164 C79.0388525,100.450492 80.6580328,101.296311 81.9859836,102.732951 C83.7570492,104.644754 84.6864754,106.875656 84.7338525,109.457705 C84.7603279,110.88877 84.6098361,112.324016 84.6168033,113.755082 C84.6460656,120.424098 84.6962295,127.093115 84.7519672,133.760738 C84.7617213,134.85041 84.8160656,135.941475 84.8940984,137.029754 C85.0571311,139.308033 85.2215574,141.587705 85.4445082,143.86041 C85.6005738,145.472623 85.8179508,147.082049 86.0729508,148.683115 C86.4338525,150.951639 87.4663934,152.970738 88.6382787,154.900656 C89.6471311,156.560246 90.9583607,157.97041 92.6862295,158.943033 C95.6222131,160.595656 98.7839344,160.733607 101.970738,160.124672 C104.123607,159.713607 106.237459,159.053115 108.327623,158.371721 C110.388525,157.701475 112.250164,156.603443 113.813607,155.091557 C115.278115,153.671639 116.317623,151.940984 117.018525,150.030574 C118.378525,146.32541 118.802131,142.42377 119.365082,138.552787 C119.575492,137.103607 119.758033,135.650246 119.950328,134.198279 C120.169098,132.545656 120.390656,130.894426 120.602459,129.243197 C120.758525,128.012787 120.900656,126.77959 121.051148,125.54918 C121.265738,123.782295 121.492869,122.016803 121.697705,120.248525 C121.855164,118.881557 121.988934,117.509016 122.128279,116.139262 C122.308033,114.389098 122.501721,112.638934 122.656393,110.885984 C122.77623,109.555246 122.727459,108.20082 122.962951,106.895164 C123.396311,104.50123 124.527787,102.464016 126.65,101.147213 C127.537623,100.596803 128.539508,100.234508 129.524672,99.7690984 L129.357459,99.509918 L129.357459,99.509918 Z M49.0993443,89.6833607 C48.0389344,87.172377 47.4021311,84.5554918 47.212623,81.8494262 C47.0342623,79.3063934 47.3366393,76.7731148 47.5972131,74.2412295 C47.8508197,71.7887705 48.0612295,69.3251639 48.135082,66.8615574 C48.2577049,62.8122131 47.9845902,58.7684426 47.7909016,54.7218852 C47.6738525,52.312623 47.9539344,49.8740984 48.1685246,47.4592623 C48.3622131,45.2840984 48.6032787,43.1033607 49.0143443,40.9602459 C49.7040984,37.3637705 50.6195902,33.8188525 51.9210656,30.382623 C53.1570492,27.1247541 54.5769672,23.9518852 56.5821311,21.0953279 C57.9560656,19.1361475 59.5153279,17.3051639 61.0132787,15.3905738 L60.5687705,15.2331148 C55.6945082,13.685 50.7408197,12.4754918 45.6463934,11.947377 C43.2371311,11.6979508 40.8195082,11.5516393 38.4032787,11.4081148 C37.6619672,11.3635246 36.9095082,11.4638525 36.1654098,11.534918 C34.3232787,11.7104918 32.4588525,11.7801639 30.6459836,12.1257377 C27.5609016,12.712377 24.6012295,13.6989344 21.8603279,15.3055738 C19.3995082,16.7477869 17.3330328,18.6122131 15.602377,20.8486885 C13.6905738,23.3178689 12.4044262,26.1103279 11.4805738,29.0881148 C10.3895082,32.6009836 9.8697541,36.2155738 9.72901639,39.8636066 C9.60639344,43.0615574 9.54508197,46.277623 10.0968852,49.4630328 C10.5079508,51.8346721 10.782459,54.2313934 11.2353279,56.5932787 C11.852623,59.8135246 12.5145082,63.0268033 13.2795082,66.2136066 C14.3733607,70.7757377 15.4658197,75.3448361 16.7617213,79.8512295 C18.0018852,84.1695082 19.4009016,88.4487705 20.9169672,92.6764754 C22.1571311,96.1266393 23.5909836,99.5127049 25.1014754,102.85418 C26.0852459,105.030738 27.2766393,107.125082 28.5251639,109.163689 C29.8531148,111.327705 31.3636066,113.381639 33.4133607,114.952049 C35.9995902,116.934918 38.0019672,117.242869 40.63,115.067705 C41.7559016,114.135492 42.707623,112.984508 43.6872131,111.887869 C45.2436885,110.146066 46.7458197,108.356885 48.2953279,106.609508 C50.2684426,104.382787 52.2666393,102.179754 54.2495082,99.9641803 C54.6689344,99.4959836 55.0716393,99.0138525 55.479918,98.540082 L54.8054918,97.9478689 C52.3404918,95.5804098 50.4314754,92.8353279 49.0993443,89.6833607 L49.0993443,89.6833607 Z M123.910492,23.3986885 C125.521311,25.2881967 127.080574,27.2334426 128.521393,29.2567213 C131.308279,33.1709016 133.535,37.3972131 135.175082,41.9189344 C135.901066,43.9115574 136.480738,45.9236885 136.221557,48.1044262 C136.041803,49.6316393 136.057131,51.1811475 135.921967,52.7167213 C135.809098,53.9945082 135.607049,55.2653279 135.44123,56.5389344 C135.193197,58.4590984 134.833689,60.3736885 134.726393,62.3022131 C134.624672,64.137377 134.730574,65.9920492 134.84623,67.8313934 C134.963279,69.7 135.215492,71.5602459 135.386885,73.4260656 C135.580574,75.5413115 135.841148,77.6565574 135.901066,79.7759836 C135.949836,81.5163934 135.795164,83.2679508 135.643279,85.0055738 C135.462131,87.0985246 134.93123,89.1245902 134.139754,91.0684426 C133.58377,92.4368033 132.919098,93.7633607 132.290656,95.1331148 L132.542869,95.4006557 L132.926066,95.697459 L133.312049,95.0063115 C136.571311,89.8672951 139.471066,84.5304098 141.982049,78.9914754 C143.597049,75.4242623 145.110328,71.8068852 146.562295,68.17 C148.825246,62.5070492 150.61582,56.6852459 152.000902,50.7477869 C152.622377,48.0821311 153.097541,45.3760656 153.519754,42.67 C153.848607,40.5547541 154.123115,38.4144262 154.184426,36.2796721 C154.249918,34.0153279 154.124508,31.7328689 153.915492,29.4740984 C153.759426,27.7685246 153.338607,26.0518033 152.269836,24.6653279 C150.551721,22.4330328 148.697049,20.2982787 146.415984,18.6094262 C144.49582,17.1867213 142.582623,15.7277869 140.521721,14.5308197 C137.254098,12.6357377 133.717541,11.3732787 130.022131,10.5135246 C126.415902,9.67327869 122.762295,9.31098361 119.085,9.23434426 C116.916803,9.18836066 114.738852,9.42106557 112.574836,9.6245082 C110.614262,9.80844262 108.66623,10.1219672 106.691721,10.3811475 C108.809754,11.572541 110.898525,12.6315574 112.868852,13.880082 C117.011557,16.5039344 120.723689,19.6614754 123.910492,23.3986885 L123.910492,23.3986885 Z M70.0887705,96.8637705 C71.4278689,92.5817213 73.2518852,88.4933607 75.0187705,84.379918 C76.4512295,81.0440164 77.2343443,77.5297541 77.494918,73.9207377 C77.6245082,72.1413115 77.5882787,70.3395902 77.5004918,68.5545902 C77.4015574,66.5717213 77.2427049,64.5832787 76.9542623,62.619918 C76.5836066,60.1103279 76.1613934,57.5993443 75.5677869,55.1357377 C74.9240164,52.470082 73.3006557,50.6140164 70.5193443,49.9298361 C68.824918,49.5131967 67.1416393,49.529918 65.4290984,49.8002459 C61.2459836,50.4593443 57.4168033,52.0004918 53.8495902,54.2578689 C53.1319672,54.7121311 52.737623,55.0786066 52.8616393,56.1083607 C53.1236066,58.2890984 53.1807377,60.5046721 53.1709836,62.7063115 C53.1570492,65.8220492 53.0246721,68.9377869 52.9062295,72.0521311 C52.8672131,73.0665574 52.7209016,74.0754098 52.6122131,75.0856557 C52.445,76.632377 52.1231148,78.1777049 52.1328689,79.7216393 C52.142623,81.3129508 52.3056557,82.9418852 52.6916393,84.4830328 C53.9178689,89.3698361 56.5152459,93.3690164 60.7722131,96.1907377 C63.3904918,97.9255738 66.287459,98.8006557 69.4672951,98.9664754 C69.6832787,98.2363115 69.8755738,97.5465574 70.0887705,96.8637705 L70.0887705,96.8637705 Z M65.0918852,54.9392623 C64.5317213,53.7631967 64.8522131,52.7891803 66.1509016,52.3377049 C66.4672131,52.2262295 66.7932787,52.1077869 67.1221311,52.0757377 C67.5736066,52.0311475 68.0334426,52.0645902 68.4904918,52.0645902 C70.137541,52.0729508 71.7218852,52.3028689 73.0818852,53.3507377 C73.9541803,54.022377 74.1882787,54.9141803 73.6239344,55.8296721 C72.8227049,57.1283607 71.6006557,57.7804918 70.099918,57.9059016 C67.7352459,58.102377 66.0756557,57.0001639 65.0918852,54.9392623 L65.0918852,54.9392623 Z M130.639426,54.510082 C130.828934,52.9438525 130.98082,51.3734426 131.174508,49.8072131 C131.252541,49.177377 130.920902,49.007377 130.392787,48.9920492 C128.731803,48.9460656 127.07082,48.887541 125.409836,48.8568852 C123.537049,48.8234426 121.714426,49.1244262 119.980984,49.8364754 C118.058033,50.6279508 116.593525,51.8959836 115.995738,53.9889344 C115.549836,55.5495902 115.43,57.1088525 115.587459,58.7405738 C115.827131,61.2278689 116.378934,63.6413115 117.249836,65.9530328 C118.411967,69.0478689 119.628443,72.1413115 121.081803,75.1065574 C123.050738,79.1210656 125.278852,83.007377 127.37041,86.9605738 C127.92918,88.0154098 128.39877,89.1162295 128.98123,90.3480328 C130.200492,87.7659836 130.795492,85.1811475 130.86377,82.5140984 C130.920902,80.2706557 130.741148,78.017459 130.610164,75.772623 C130.527951,74.3986885 130.334262,73.0331148 130.200492,71.6619672 C130.01377,69.7515574 129.730902,67.842541 129.687705,65.9279508 C129.644508,63.9813115 129.782459,62.0235246 129.949672,60.0796721 C130.107131,58.2152459 130.415082,56.3661475 130.639426,54.510082 L130.639426,54.510082 Z M126.892459,53.002377 C126.275164,54.7065574 124.955574,55.6680328 123.244426,55.9509016 C121.648934,56.2128689 120.251311,55.6234426 119.211803,54.3512295 C118.471885,53.4454918 118.754754,52.372541 119.863934,51.7608197 C121.137541,51.0557377 122.537951,50.877377 124.18918,50.770082 C124.637869,50.8522951 125.313689,50.9205738 125.956066,51.1045082 C126.888279,51.3678689 127.232459,52.0687705 126.892459,53.002377 L126.892459,53.002377 Z M77.5339344,105.479426 C76.6212295,104.733934 75.4145082,104.690738 74.5463934,105.508689 C73.4692623,106.525902 72.5217213,107.689426 71.5741803,108.83623 C70.4803279,110.161393 69.4547541,111.539508 68.0431967,112.566475 C65.9892623,114.058852 63.5953279,114.677541 61.1888525,115.262787 C59.2756557,115.728197 57.3540984,116.160164 55.4353279,116.607459 L55.4116393,116.855492 C55.9815574,117.118852 56.5333607,117.447705 57.1269672,117.63582 C60.0531967,118.562459 63.0295902,119.023689 66.1216393,118.761721 C68.3539344,118.572213 70.4803279,118.085902 72.4952459,117.13 C75.2681967,115.815984 77.4015574,113.73418 79.2158197,111.312377 C79.5195902,110.908279 79.657541,110.310492 79.6937705,109.789344 C79.8177869,107.948607 78.8827869,106.580246 77.5339344,105.479426 L77.5339344,105.479426 Z M149.645984,106.212377 C147.291066,106.46459 144.933361,106.732131 142.571475,106.867295 C141.431639,106.932787 140.275082,106.71541 139.124098,106.622049 C137.19418,106.465984 135.310246,106.036803 133.678525,105.005656 C132.73377,104.410656 131.949262,104.34377 130.945984,104.680984 C129.513525,105.163115 128.344426,105.896066 127.998852,107.448361 C127.763361,108.497623 127.678361,109.584508 127.583607,110.658852 C127.565492,110.848361 127.802377,111.196721 127.983525,111.244098 C129.088525,111.535328 130.199098,111.879508 131.32918,111.98123 C132.717049,112.106639 134.13,112.06623 135.527623,111.996557 C137.036721,111.921311 138.555574,111.82377 140.042377,111.572951 C143.546885,110.984918 146.937131,110.02623 149.948361,108.03918 C151.033852,107.321557 152.10959,106.588607 153.188115,105.862623 L153.098934,105.709344 C151.947951,105.880738 150.802541,106.089754 149.645984,106.212377 L149.645984,106.212377 Z" id="Shape"></path>
                </g>
            </g>
        </g>
    </g>
</svg>