<?xml version="1.0" encoding="UTF-8" standalone="no"?>
<svg width="124px" height="170px" viewBox="0 0 124 170" version="1.1" xmlns="http://www.w3.org/2000/svg" xmlns:xlink="http://www.w3.org/1999/xlink">
    <!-- Generator: Sketch 39.1 (31720) - http://www.bohemiancoding.com/sketch -->
    <title>firebase</title>
    <desc>Created with Sketch.</desc>
    <defs></defs>
    <g id="Page-1" stroke="none" stroke-width="1" fill="none" fill-rule="evenodd">
        <g id="Artboard" transform="translate(-957.000000, -8982.000000)">
            <g id="Group-5" transform="translate(98.000000, 7782.000000)">
                <g id="firebase" transform="translate(859.000000, 1200.000000)">
                    <g id="Group">
                        <path d="M0,137.064374 L1.02799507,135.624934 L49.6571274,43.3533556 L49.7598345,42.3765598 L28.3230684,2.11079803 C26.5270843,-1.26218548 21.4710017,-0.409378294 20.8815932,3.36641397 L0,137.064374 L0,137.064374 Z" id="Shape" fill="#FFC24A"></path>
                        <g transform="translate(0.484330, 0.484330)" id="path-1-link" fill="#FFA712">
                            <g>
                                <path d="M0.12240696,135.482561 L0.900053294,133.966228 L49.0196584,42.6614538 L27.6365399,2.23189334 C25.8593738,-1.10574867 21.3464421,-0.254915534 20.7632093,3.48131466 L0.12240696,135.482561 L0.12240696,135.482561 Z" id="path-1"></path>
                            </g>
                        </g>
                        <g transform="translate(49.401709, 24.216524)" id="path-3-link" fill="#FFA50E">
                            <g>
                                <path d="M15.7005912,47.9362392 L31.2178711,32.0441466 L15.7005917,2.49657225 C14.2271247,-0.308232231 10.6474783,-0.602102125 9.1896033,2.21079832 L0.614494302,18.7309146 L0.3581251,19.5754503 L15.7005912,47.9362392 L15.7005912,47.9362392 Z" id="path-3"></path>
                            </g>
                        </g>
                        <polygon id="Shape" fill="#F6820C" points="0 137.064374 0.465972987 136.595918 2.15900554 135.907764 64.3846294 73.9134621 65.1729751 71.7674107 49.6502305 42.1875383"></polygon>
                        <path d="M67.3805273,168.329674 L123.696028,136.922003 L107.614213,37.8791662 C107.111164,34.7803764 103.309464,33.555295 101.091548,35.7772201 L0.000123371745,137.064498 L55.9926985,168.326898 C59.5313086,170.302696 63.8409921,170.303622 67.3805273,168.329674" id="Shape" fill="#FDE068"></path>
                        <path d="M123.191437,136.658611 L107.231707,38.3676617 C106.732478,35.2923966 103.571067,34.0198359 101.369989,36.2248932 L0.624521454,136.872175 L56.0020805,167.825094 C59.5138267,169.785893 63.7907932,169.786811 67.3034582,167.827848 L123.191437,136.658611 L123.191437,136.658611 Z" id="Shape" fill="#FCCA3F"></path>
                        <path d="M67.3804963,167.404386 C63.8409611,169.378334 59.5312776,169.377408 55.9926675,167.40161 L0.451080073,136.588244 L9.25288088e-05,137.064498 L55.9926675,168.326898 C59.5312776,170.302696 63.8409611,170.303622 67.3804963,168.329674 L123.695997,136.922003 L123.558129,136.073514 L67.3804963,167.404386 L67.3804963,167.404386 Z" id="Shape" fill="#EEAB37"></path>
                    </g>
                </g>
            </g>
        </g>
    </g>
</svg>
