<?xml version="1.0" encoding="UTF-8" standalone="no"?>
<svg width="126px" height="170px" viewBox="0 0 126 170" version="1.1" xmlns="http://www.w3.org/2000/svg" xmlns:xlink="http://www.w3.org/1999/xlink">
    <!-- Generator: Sketch 39.1 (31720) - http://www.bohemiancoding.com/sketch -->
    <title>Java_Logo</title>
    <desc>Created with Sketch.</desc>
    <defs></defs>
    <g id="Page-1" stroke="none" stroke-width="1" fill="none" fill-rule="evenodd">
        <g id="Artboard" transform="translate(-1891.000000, -8983.000000)">
            <g id="Group-5" transform="translate(98.000000, 7782.000000)">
                <g id="Java_Logo" transform="translate(1793.000000, 1201.000000)">
                    <g id="Layer_1">
                        <path d="M40.5262634,131.303978 C40.5262634,131.303978 34.0470699,135.071855 45.1372849,136.346855 C58.5727688,137.879597 65.4394892,137.659785 80.2454839,134.857527 C80.2454839,134.857527 84.1381183,137.298306 89.5744624,139.412339 C56.3833333,153.6375 14.4563978,138.588387 40.5262634,131.303978" id="Shape" fill="#5382A1"></path>
                        <path d="M36.4704839,112.741075 C36.4704839,112.741075 29.2034409,118.120296 40.3018817,119.268253 C54.654086,120.748898 65.9883333,120.87 85.6009409,117.093441 C85.6009409,117.093441 88.313629,119.843602 92.5791667,121.347554 C52.4491129,133.082124 7.75145161,122.272957 36.4704839,112.741075" id="Shape" fill="#5382A1"></path>
                        <path d="M70.6619624,81.2522312 C78.8402419,90.6680376 68.5131989,99.1410753 68.5131989,99.1410753 C68.5131989,99.1410753 89.2792473,88.4210215 79.7423387,74.9969624 C70.8351613,62.4781989 64.004543,56.2581183 100.982742,34.8120699 C100.982742,34.8120699 42.9391667,49.3086828 70.6619624,81.2522312" id="Shape" fill="#E76F00"></path>
                        <path d="M114.559892,145.03422 C114.559892,145.03422 119.354624,148.984892 109.279382,152.041237 C90.1210215,157.845 29.5402419,159.597554 12.7111559,152.272473 C6.66153226,149.640672 18.0062903,145.988414 21.5749194,145.222043 C25.2966398,144.415 27.4234677,144.565349 27.4234677,144.565349 C20.695672,139.825914 -16.0622581,153.871478 8.75225806,157.893898 C76.4250538,168.868495 132.113306,152.952016 114.559892,145.03422" id="Shape" fill="#5382A1"></path>
                        <path d="M43.6420161,93.5077688 C43.6420161,93.5077688 12.8267742,100.826909 32.7295699,103.484758 C41.1331452,104.609866 57.885457,104.355323 73.4898118,103.047876 C86.2425538,101.972124 99.0478495,99.6848925 99.0478495,99.6848925 C99.0478495,99.6848925 94.5510753,101.610645 91.2977688,103.83207 C60.0054301,112.061989 -0.445564516,108.233333 16.9575,99.8151344 C31.6752957,92.7007258 43.6420161,93.5077688 43.6420161,93.5077688" id="Shape" fill="#5382A1"></path>
                        <path d="M98.9208065,124.40664 C130.730914,107.876882 116.023172,91.9919355 105.757366,94.1320161 C103.241183,94.6557258 102.119274,95.1095161 102.119274,95.1095161 C102.119274,95.1095161 103.05336,93.6462366 104.837446,93.0128495 C125.146505,85.8728495 140.765484,114.071371 98.2814785,125.239731 C98.2814785,125.240188 98.7736559,124.800108 98.9208065,124.40664" id="Shape" fill="#5382A1"></path>
                        <path d="M79.7423387,0.18233871 C79.7423387,0.18233871 97.3592742,17.8052151 63.0334409,44.9042204 C35.5076075,66.6422849 56.7566935,79.0367473 63.0220161,93.1979301 C46.9547312,78.7013172 35.1634946,65.9398925 43.0739785,54.0627419 C54.6847043,36.6281452 86.8503495,28.1752151 79.7423387,0.18233871" id="Shape" fill="#E76F00"></path>
                        <path d="M46.7678226,169.198441 C77.3015591,171.152984 124.18957,168.114005 125.300054,153.66629 C125.300054,153.66629 123.165457,159.143306 100.065565,163.49293 C74.0043817,168.397339 41.861586,167.824731 22.7973656,164.681559 C22.7978226,164.681102 26.7000538,167.911559 46.7678226,169.198441" id="Shape" fill="#5382A1"></path>
                    </g>
                </g>
            </g>
        </g>
    </g>
</svg>