<?xml version="1.0" encoding="UTF-8" standalone="no"?>
<svg width="170px" height="170px" viewBox="0 0 170 170" version="1.1" xmlns="http://www.w3.org/2000/svg" xmlns:xlink="http://www.w3.org/1999/xlink">
    <!-- Generator: Sketch 39.1 (31720) - http://www.bohemiancoding.com/sketch -->
    <title>bootstrap-plain</title>
    <desc>Created with Sketch.</desc>
    <defs></defs>
    <g id="Page-1" stroke="none" stroke-width="1" fill="none" fill-rule="evenodd">
        <g id="Artboard" transform="translate(-700.000000, -8595.000000)" fill="#5B4282">
            <g id="Group-5" transform="translate(98.000000, 7782.000000)">
                <g id="bootstrap-plain" transform="translate(602.000000, 813.000000)">
                    <path d="M101.59336,86.50008 C98.41912,85.4556 93.84952,85.68 87.88456,85.68 L63.92,85.68 L63.92,116.96 L89.54784,116.96 C93.55168,116.96 96.36416,116.5316 97.98392,116.2324 C100.83856,115.72104 103.22536,114.73096 105.14296,113.53688 C107.0592,112.34552 108.63544,110.53808 109.87304,108.25872 C111.10792,105.97936 111.72672,103.3124 111.72672,100.32992 C111.72672,96.83744 110.83184,94.15552 109.04072,91.57696 C107.25096,88.9984 104.76896,87.54456 101.59336,86.50008 L101.59336,86.50008 Z M98.30352,72.19832 C101.45464,71.26264 103.83056,69.62792 105.42856,67.456 C107.02792,65.28272 107.82624,62.51784 107.82624,59.23616 C107.82624,56.1272 107.0796,53.36912 105.58768,51.00272 C104.09576,48.63632 101.96736,47.72104 99.19704,46.84656 C96.42672,45.9748 91.67624,46.24 84.94424,46.24 L63.92,46.24 L63.92,73.44 L86.47832,73.44 C91.97544,73.44 95.91536,72.9232 98.30352,72.19832 L98.30352,72.19832 Z M170,22.61 C170,10.12248 159.87752,0 147.39,0 L22.61,0 C10.12248,0 0,10.12248 0,22.61 L0,147.39 C0,159.87752 10.12248,170 22.61,170 L147.39,170 C159.87752,170 170,159.87752 170,147.39 L170,22.61 L170,22.61 Z M121.79208,112.5332 C119.93976,116.30448 117.64816,119.21216 114.92136,121.2576 C112.1932,123.30304 108.7728,125.0384 104.66152,126.08288 C100.5516,127.12872 95.51144,127.84 89.54784,127.84 L51.68,127.84 L51.68,34 L88.9712,34 C96.13024,34 101.8708,34.82824 106.1956,36.72272 C110.52176,38.61992 113.90816,41.47864 116.36024,45.41992 C118.8096,49.3612 120.03496,53.45344 120.03496,57.75648 C120.03496,61.76168 118.94696,65.51936 116.77504,69.05536 C114.60176,72.59408 111.32008,75.4392 106.93272,77.61248 C112.59848,79.2744 116.95592,82.10592 120.00232,86.10976 C123.04872,90.11496 124.57192,94.84368 124.57192,100.29728 C124.57192,104.686 123.64576,108.76328 121.79208,112.5332 L121.79208,112.5332 Z" id="Shape"></path>
                </g>
            </g>
        </g>
    </g>
</svg>