<?xml version="1.0" encoding="UTF-8" standalone="no"?>
<svg width="564px" height="207px" viewBox="0 0 564 207" version="1.1" xmlns="http://www.w3.org/2000/svg" xmlns:xlink="http://www.w3.org/1999/xlink">
    <!-- Generator: Sketch 39.1 (31720) - http://www.bohemiancoding.com/sketch -->
    <title>Logo</title>
    <desc>Created with Sketch.</desc>
    <defs></defs>
    <g id="Page-1" stroke="none" stroke-width="1" fill="none" fill-rule="evenodd">
        <g id="Artboard" transform="translate(-1326.000000, -484.000000)">
            <g id="Header" transform="translate(328.000000, 451.000000)">
                <g id="Logo" transform="translate(998.000000, 33.000000)">
                    <path d="M59.9482375,65 L1.88996704e-06,118.999999 L-1.90582413e-21,126.940847 L0,142 L100,142 L100,119 L41.6157248,119 L100,65 L100,42 L0,42 L0,65 L59.9482375,65 Z" id="Z" fill="#D8D8D8" opacity="0.75"></path>
                    <path d="M177,92 C177,64.3857625 154.614237,42 127,42 C99.3857625,42 77,64.3857625 77,92 C77,119.614237 99.3857625,142 127,142 L127,119.995546 C112.042868,119.728862 100,107.520812 100,92.5 C100,77.3121694 112.312169,65 127.5,65 C142.520812,65 154.728862,77.0428676 154.995546,92 L177,92 Z" id="A" fill-opacity="0.76" fill="#4990E2"></path>
                    <path d="M255,92 C255,119.614237 232.614237,142 205,142 C177.385763,142 155,119.614237 155,92 C155,64.3857625 177.385763,42 205,42 L205,65.0044542 C190.042868,65.2711384 178,77.479188 178,92.5 C178,107.687831 190.312169,120 205.5,120 C220.687831,120 233,107.687831 233,92.5 C233,92.3329814 232.998511,92.1663105 232.995546,92 L255,92 Z" id="C" fill-opacity="0.75" fill="#50E3C2"></path>
                    <path d="M332,92 C332,64.3857625 309.614237,42 282,42 C272.054641,42 262.78747,44.9036662 255,49.9094851 L255,0 L232,0 L232,141 L255,141 L255,113.545257 L255,93 C255.001489,92.8336895 255,92.6670186 255,92.5 C255,77.3121694 267.312169,65 282.5,65 C297.687831,65 310,77.3121694 310,92.5 C310,92.6670186 309.998511,92.8336895 309.995546,93 L310,113.215335 L310,142 L332,142 L332,92 Z" id="H" fill-opacity="0.75" fill="#F6A623"></path>
                    <path d="M409,92 C409,64.3857625 386.614237,42 359,42 C331.385763,42 309,64.3857625 309,92 C309,119.614237 331.385763,142 359,142 L359,119.995546 C344.042868,119.728862 332,107.520812 332,92.5 C332,77.3121694 344.312169,65 359.5,65 C374.520812,65 386.728862,77.0428676 386.995546,92 L409,92 Z" id="A" fill-opacity="0.75" fill="#F8E81C"></path>
                    <path d="M437,42 C427.054641,42 417.78747,44.9036662 410,49.9094851 L410,42 L387,42 L387,142 L410,142 L410,113.045257 L410,92 C410.268173,77.2091782 422.209178,65.2681731 437,65.0044542 L458.045257,65 L487,65 L487,42 L437,42 Z" id="R" fill-opacity="0.75" fill="#BD0FE1"></path>
                    <path d="M542,133.43067 C534.011218,138.840277 524.374606,142 514,142 C486.385763,142 464,119.614237 464,92 L487.004454,92 C487.001489,92.1663105 487,92.3329814 487,92.5 C487,107.687831 499.312169,120 514.5,120 C529.687831,120 542,107.687831 542,92.5 C542,92.3329814 541.998511,92.1663105 541.995546,92 L542,92 L542,42 L564,42 L564,157 L542,157 L542,133.43067 Z M564,157 C564,184.614237 541.614237,207 514,207 C486.385763,207 464,184.614237 464,157 L487.004454,157 C487.001489,157.166311 487,157.332981 487,157.5 C487,172.687831 499.312169,185 514.5,185 C529.687831,185 542,172.687831 542,157.5 C542,157.332981 541.998511,157.166311 541.995546,157 L564,157 Z M464,42 L487,42 L487,92 L464,92 L464,42 Z" id="Y" fill="#FF5757" opacity="0.75"></path>
                </g>
            </g>
        </g>
    </g>
</svg>