<?xml version="1.0" encoding="UTF-8" standalone="no"?>
<svg width="173px" height="170px" viewBox="0 0 173 170" version="1.1" xmlns="http://www.w3.org/2000/svg" xmlns:xlink="http://www.w3.org/1999/xlink">
    <!-- Generator: Sketch 39.1 (31720) - http://www.bohemiancoding.com/sketch -->
    <title>rails</title>
    <desc>Created with Sketch.</desc>
    <defs></defs>
    <g id="Page-1" stroke="none" stroke-width="1" fill="none" fill-rule="evenodd">
        <g id="Artboard" transform="translate(-220.000000, -8595.000000)" fill="#993333">
            <g id="Group-5" transform="translate(98.000000, 7782.000000)">
                <g id="rails" transform="translate(122.808411, 813.000000)">
                    <path d="M20,170 C28.3333333,10 124.166667,-14.1666667 171.666667,33.3333333 L169.166667,39.1666667 C93.3333333,-1.66666667 70,113.333333 103.333333,170 L20,170 Z" id="Shape"></path>
                    <path d="M150,34.1666667 L150,39.1666667 L158.333333,40 L158.333333,35.8333333 L150,34.1666667 Z M150.833333,10 L150.833333,15 L160,20.8333333 L160,16.6666667 L150.833333,10 Z M123.333333,38.3333333 L130.833333,35.8333333 L133.333333,43.3333333 L126.666667,45.8333333 L123.333333,38.3333333 Z M108.333333,0 L120,0 L122.5,8.33333333 L111.666667,8.33333333 L108.333333,0 Z M110,49.1666667 L115.833333,58.3333333 L111.666667,64.1666667 L105,55 L110,49.1666667 Z M81.6666667,5 L88.3333333,15 L79.1666667,20.8333333 L71.6666667,10.8333333 L81.6666667,5 Z M96.6666667,75 L94.1666667,84.1666667 L103.333333,90.8333333 L105,82.5 L96.6666667,75 Z M45.8333333,30.8333333 L56.6666667,40 L49.1666667,50.8333333 L38.3333333,42.5 L45.8333333,30.8333333 Z M91.6666667,105 L91.6666667,115 L104.166667,119.166667 L103.333333,110 L91.6666667,105 Z M19.1666667,74.1666667 L32.5,80 L28.3333333,92.5 L14.1666667,87.5 L19.1666667,74.1666667 Z M96.6666667,142.5 L100,153.333333 L115,155 L111.666667,145 L96.6666667,142.5 Z M3.33333333,126.666667 L18.3333333,129.166667 L16.6666667,145 L0,143.333333 L3.33333333,126.666667 Z" id="Shape"></path>
                </g>
            </g>
        </g>
    </g>
</svg>