<?xml version="1.0" encoding="UTF-8" standalone="no"?>
<svg width="190px" height="170px" viewBox="0 0 190 170" version="1.1" xmlns="http://www.w3.org/2000/svg" xmlns:xlink="http://www.w3.org/1999/xlink">
    <!-- Generator: Sketch 39.1 (31720) - http://www.bohemiancoding.com/sketch -->
    <title>Swift_logo</title>
    <desc>Created with Sketch.</desc>
    <defs>
        <linearGradient x1="50%" y1="0%" x2="50%" y2="100%" id="linearGradient-1">
            <stop stop-color="#F88A36" offset="0%"></stop>
            <stop stop-color="#FD2020" offset="100%"></stop>
        </linearGradient>
    </defs>
    <g id="Page-1" stroke="none" stroke-width="1" fill="none" fill-rule="evenodd">
        <g id="Artboard" transform="translate(-1168.000000, -7821.000000)" fill="url(#linearGradient-1)">
            <g id="Group-5" transform="translate(98.000000, 7782.000000)">
                <g id="Swift_logo" transform="translate(1070.377358, 39.000000)">
                    <path d="M142.454966,157.527497 C120.208443,170.378713 89.6200708,171.699109 58.845794,158.509452 C33.9284494,147.908153 13.2535314,129.351111 1.13954967e-14,108.148512 C6.36173323,113.449161 13.7835964,117.691588 21.7355246,121.400136 C53.5165435,136.296297 85.2908889,135.276208 107.651814,121.43827 C107.637514,121.42397 107.62798,121.414437 107.618447,121.400136 C75.8097804,97.0133333 48.7726525,65.2046672 28.6282762,39.2305294 C24.3853729,34.9890561 21.2045063,29.6874528 18.0236397,24.9163912 C42.4099659,47.1819809 81.1118603,75.277332 94.8925967,83.2330736 C65.7390223,52.4826308 39.7601177,14.3150915 40.8183409,15.3733147 C86.9416219,62.0257073 129.885466,88.5337235 129.885466,88.5337235 C131.305964,89.3345411 132.402322,90.0018892 133.284174,90.5977356 C134.213695,88.2334169 135.028813,85.7785296 135.715228,83.2330736 C143.137091,56.1959458 134.657004,25.4455029 116.099963,0.000476677149 C159.039041,25.9769979 184.488834,74.7482204 173.882767,115.570851 C173.606294,116.671976 173.305988,117.7588 172.981847,118.826556 C173.105783,118.974326 173.229719,119.126863 173.353655,119.284166 C194.556255,145.792183 188.726493,173.887534 186.076169,168.586884 C174.573949,146.078189 153.280781,152.961407 142.455443,157.527974 L142.454966,157.527497 Z" id="Shape"></path>
                </g>
            </g>
        </g>
    </g>
</svg>