<?xml version="1.0" encoding="UTF-8"?>
<svg width="507px" height="506px" viewBox="0 0 507 506" version="1.1" xmlns="http://www.w3.org/2000/svg" xmlns:xlink="http://www.w3.org/1999/xlink">
    <!-- Generator: Sketch 46.1 (44463) - http://www.bohemiancoding.com/sketch -->
    <title>skills-racket</title>
    <desc>Created with Sketch.</desc>
    <defs></defs>
    <g id="Page-1" stroke="none" stroke-width="1" fill="none" fill-rule="evenodd">
        <g id="Artboard" fill-rule="nonzero">
            <g id="skills-racket">
                <circle id="circle" fill="#FFFFFF" cx="252.5" cy="252.5" r="250.5"></circle>
                <path d="M452.999841,409 C486.825766,366.010953 507,311.810239 507,252.905022 C507,113.229839 393.57324,0 253.652908,0 C223.216382,0 194.035115,5.3630138 167,15.1857128 C269.853156,69.0446807 405.903606,244.764073 452.999841,409 Z" id="blue-piece" fill="#3E5BA9"></path>
                <path d="M217,161.718595 C177.490597,119.184046 133.244789,85.4038158 86.3831003,63 C33.4380384,109.390689 0,177.474169 0,253.370932 C0,317.187256 23.6429968,375.479379 62.642033,420 C97.0217484,316.779241 161.654212,217.290618 217,161.718595 Z" id="left-red-piece" fill="#9F1D20"></path>
                <path d="M263.417279,219 C208.512736,277.978459 153.800587,381.222472 134,476.477312 C169.491751,495.311147 209.995776,506 253.009946,506 C297.232593,506 338.803805,494.707889 375,474.875282 C354.136234,378.788466 314.752505,290.788702 263.417279,219 Z" id="bottom-red-piece" fill="#9F1D20"></path>
            </g>
        </g>
    </g>
</svg>