<?xml version="1.0" encoding="UTF-8" standalone="no"?>
<svg width="170px" height="170px" viewBox="0 0 170 170" version="1.1" xmlns="http://www.w3.org/2000/svg" xmlns:xlink="http://www.w3.org/1999/xlink">
    <!-- Generator: Sketch 39.1 (31720) - http://www.bohemiancoding.com/sketch -->
    <title>photoshop-plain</title>
    <desc>Created with Sketch.</desc>
    <defs></defs>
    <g id="Page-1" stroke="none" stroke-width="1" fill="none" fill-rule="evenodd">
        <g id="Artboard" transform="translate(-934.000000, -8209.000000)" fill="#80B5E2">
            <g id="Group-5" transform="translate(98.000000, 7782.000000)">
                <g id="photoshop-plain" transform="translate(836.000000, 427.000000)">
                    <path d="M66.4430159,54.7993651 C61.4752381,53.5513492 56.5007143,53.9520635 51.2509524,54.7696825 C51.2509524,63.9510317 51.2320635,72.8854762 51.300873,81.8212698 C51.3035714,82.2786508 51.9903175,83.0746825 52.4355556,83.1353968 C58.1602381,83.9084921 63.8538889,83.9705556 69.2075397,81.3611905 C74.7460317,78.6627778 77.5672222,73.0203968 76.8359524,66.3957937 C76.1721429,60.3634921 72.6007937,56.3469048 66.4430159,54.7993651 L66.4430159,54.7993651 Z M170,84.9500794 L170,3.08293651 C170,0.255 170.031032,0 167.285397,0 L3.34468254,0 C0.674603175,0 0,0.256349206 0,2.94936508 L0,166.890079 C0,169.612778 0.34,169.616825 2.98039683,169.616825 C57.6974603,169.618175 112.577778,169.604683 167.294841,169.666746 C169.417143,169.669444 169.986508,169.104127 169.981111,167.023651 C169.908254,139.665794 170,112.305238 170,84.9500794 L170,84.9500794 Z M74.6812698,92.8294444 C67.1837302,95.5035714 59.3650794,95.6533333 51.2698413,95.0259524 L51.2698413,125.47619 L36.4285714,125.47619 L36.4285714,123.584603 C36.4285714,98.0913492 36.3111905,72.6007937 36.2396825,47.1088889 C36.2315873,44.9919841 36.5675397,43.9692857 38.9529365,43.7264286 C50.1945238,42.5769048 61.3726984,41.2843651 72.550873,43.905873 C84.5669048,46.7216667 91.4950794,54.6657937 92.0212698,65.6415873 C92.6729365,79.2334921 86.7,88.5430159 74.6812698,92.8294444 L74.6812698,92.8294444 Z M134.464603,110.037222 C133.89254,117.823492 129.502222,122.935635 122.301508,125.407381 C112.665476,128.715635 103.082063,127.947937 93.6646032,124.205238 C92.1224603,123.591349 91.8242857,122.814206 92.3329365,121.242381 C93.2598413,118.373968 93.9384921,115.424603 94.6535714,112.76127 C98.6350794,113.929683 102.420952,115.388175 106.343095,116.077619 C109.113016,116.564683 112.106905,116.278651 114.922698,115.83746 C117.447063,115.440794 119.263095,113.727302 119.677302,111.018095 C120.098254,108.264365 119.268492,105.878968 116.837222,104.41373 C114.905159,103.250714 112.776111,102.418254 110.734762,101.442778 C107.452143,99.8736508 103.953651,98.6431746 100.926032,96.6800794 C89.0111905,88.9531746 92.8901587,74.5760317 100.841032,69.1616667 C105.095079,66.2662698 109.80246,64.9818254 114.841746,64.8050794 C120.76881,64.5973016 126.475952,65.62 132.081905,68.3440476 L129.120397,78.8530159 C126.772778,78.0219048 124.587063,76.9425397 122.279921,76.5134921 C119.542381,76.0034921 116.67127,75.7188095 113.908095,75.944127 C110.203175,76.2476984 108.033651,78.8044444 108.033651,81.9750794 C108.033651,83.8531746 108.746032,85.4425397 110.31246,86.353254 C112.560238,87.6606349 114.945635,88.7386508 117.309444,89.8328571 C119.86754,91.0161111 122.568651,91.9254762 125.030952,93.2760317 C131.601587,96.8784127 135.021825,102.450635 134.464603,110.037222 L134.464603,110.037222 Z" id="Shape"></path>
                </g>
            </g>
        </g>
    </g>
</svg>