<svg id="Layer_1" data-name="Layer 1" xmlns="http://www.w3.org/2000/svg" viewBox="0 0 843 843"><defs><style>.cls-1{fill:#0067af;}.cls-2{fill:#35d0fb;}</style></defs><title>adobe photoshop</title><rect class="cls-1" width="843" height="843" rx="100" ry="100"/><path class="cls-2" d="M380.54,298.33c-36.67-.33-103.29,2.84-103.29,2.84C262.08,302.83,264,308,264,308V712c0,8.38,8,8,8,8h71.88c6.45,0,6.11-7.94,6.11-7.94l.24-126.44S379.59,587,386.47,587c72.5-1,153.47-43.5,154-146C540.94,302,417.21,298.67,380.54,298.33ZM378.9,522c-1.38.12-16.24,0-16.24,0s-9.66.25-13.66-1.88V363.5s31.58-2.67,48.58,0c0,0,59.88,1.83,59.55,81.83C456.79,464,452.56,520,378.9,522Z" transform="translate(-90 -91)"/><path class="cls-2" d="M771,420v54s-.06,7.19-7.81,4-37.44-18.87-73.31-18.87c-14.37,0-37.94,3.25-37.94,25.75.17,12.29.7,17.12,40.2,34.63s96.18,39.17,96.18,103.17S742.66,725.67,674,726c-33.33-.33-50.66-2-93-24.33-2.5-1.25-7.92-4-7.75-16.25s0-52.08,0-52.08-.91-10.83,9-5.75,47.25,28.75,92.58,28.58c7,0,33,1,32.67-23.33-.25-14.33-10.75-25.58-36.75-36.08S573.44,557.5,573.22,493,633.5,393,693.5,393c22.5.25,53.25,7.75,72,18A10.79,10.79,0,0,1,771,420Z" transform="translate(-90 -91)"/></svg>