<?xml version="1.0" encoding="UTF-8" standalone="no"?>
<svg width="188px" height="170px" viewBox="0 0 188 170" version="1.1" xmlns="http://www.w3.org/2000/svg" xmlns:xlink="http://www.w3.org/1999/xlink">
    <!-- Generator: Sketch 39.1 (31720) - http://www.bohemiancoding.com/sketch -->
    <title>sketchapp</title>
    <desc>Created with Sketch.</desc>
    <defs></defs>
    <g id="Page-1" stroke="none" stroke-width="1" fill="none" fill-rule="evenodd">
        <g id="Artboard" transform="translate(-1403.000000, -8983.000000)" fill="#EFA720">
            <g id="Group-5" transform="translate(98.000000, 7782.000000)">
                <g id="sketchapp" transform="translate(1305.000000, 1201.000000)">
                    <path d="M160.91646,14.6236561 L128.186268,0.224979426 L60.3257054,0.224979426 L27.7954953,14.8904315 L0.731182832,44.9540683 L94.3225806,169.409429 L187.913978,44.9540683 L160.91646,14.6236561 L160.91646,14.6236561 L160.91646,14.6236561 Z M180.114695,45.7611941 L150.517415,67.9087583 L129.46935,36.3716572 L159.249813,22.3561454 L180.114695,45.7611941 L180.114695,45.7611941 L180.114695,45.7611941 Z M139.651614,71.2852478 L47.2601063,71.2852478 L65.648016,38.6214503 L120.720154,38.7546382 L139.651614,71.2852478 L139.651614,71.2852478 L139.651614,71.2852478 Z M66.3875478,5.09853153 L122.762367,5.09853153 L150.517415,17.3386065 L122.643577,29.4798906 L66.2687595,29.4798906 L38.6760952,17.3486056 L66.3875478,5.09853153 L66.3875478,5.09853153 L66.3875478,5.09853153 Z M29.331754,22.3561454 L57.2591872,36.3548588 L37.2610252,67.2856161 L8.46687183,45.7611941 L29.331754,22.3561454 L29.331754,22.3561454 L29.331754,22.3561454 Z M19.1970856,62.0680957 L37.3938131,77.4102853 L80.6858343,148.652137 L19.1970856,62.0680957 L19.1970856,62.0680957 L19.1970856,62.0680957 Z M49.7830743,81.4175165 L137.508211,81.4175165 L94.3225806,161.010201 L49.7830743,81.4175165 L49.7830743,81.4175165 L49.7830743,81.4175165 Z M107.895733,148.652137 L151.187754,77.4102853 L169.384482,62.0680957 L107.895733,148.652137 L107.895733,148.652137 L107.895733,148.652137 Z" id="Shape"></path>
                </g>
            </g>
        </g>
    </g>
</svg>