<?xml version="1.0" encoding="UTF-8" standalone="no"?>
<svg width="169px" height="170px" viewBox="0 0 169 170" version="1.1" xmlns="http://www.w3.org/2000/svg" xmlns:xlink="http://www.w3.org/1999/xlink">
    <!-- Generator: Sketch 39.1 (31720) - http://www.bohemiancoding.com/sketch -->
    <title>python-original</title>
    <desc>Created with Sketch.</desc>
    <defs>
        <linearGradient x1="-3.26612863%" y1="3.84616971%" x2="71.3197234%" y2="67.9629715%" id="linearGradient-1">
            <stop stop-color="#5A9FD4" offset="0%"></stop>
            <stop stop-color="#306998" offset="100%"></stop>
        </linearGradient>
        <linearGradient x1="65.1442416%" y1="71.7284164%" x2="38.564777%" y2="34.3655473%" id="linearGradient-2">
            <stop stop-color="#FFD43B" offset="0%"></stop>
            <stop stop-color="#FFE873" offset="100%"></stop>
        </linearGradient>
    </defs>
    <g id="Page-1" stroke="none" stroke-width="1" fill="none" fill-rule="evenodd">
        <g id="Artboard" transform="translate(-1413.000000, -8209.000000)">
            <g id="Group-5" transform="translate(98.000000, 7782.000000)">
                <g id="Python" transform="translate(788.000000, 387.000000)">
                    <g id="python-original" transform="translate(527.000000, 40.000000)">
                        <g id="Group">
                            <path d="M83.4858007,0.0109880388 C76.5609548,0.0438293839 69.9510238,0.633331528 64.1316601,1.66454976 C46.9917644,4.69580591 43.8819805,11.0407538 43.8819805,22.7437671 L43.8819805,38.197262 L84.38298,38.197262 L84.38298,43.348427 L28.6807792,43.348427 C16.9108375,43.348427 6.60393751,50.4306631 3.37934086,63.9087511 C-0.340590567,79.3523936 -0.504608707,88.9913284 3.37934086,105.118071 C6.25785923,117.123225 13.1334997,125.675111 24.9050816,125.675111 L38.831862,125.675111 L38.831862,107.149308 C38.831862,93.7648179 50.396781,81.9599964 64.1333003,81.9599964 L104.588375,81.9599964 C115.84986,81.9599964 124.838054,72.6757481 124.838054,61.3553365 L124.838054,22.7454092 C124.838054,11.755053 115.57759,3.50038095 104.588375,1.66619183 C97.6274448,0.506892349 90.4090064,-0.020211239 83.4858007,0.0109880388 L83.4858007,0.0109880388 Z M61.5828182,12.4397951 C65.7652808,12.4397951 69.1834189,15.9160515 69.1834189,20.1919946 C69.1834189,24.449875 65.766921,27.89329 61.5828182,27.89329 C57.3839538,27.89329 53.9838578,24.449875 53.9838578,20.1919946 C53.9822176,15.9160515 57.3839538,12.4397951 61.5828182,12.4397951 L61.5828182,12.4397951 Z" id="Shape" fill="url(#linearGradient-1)"></path>
                            <path d="M129.888173,43.348427 L129.888173,61.3553365 C129.888173,75.3129081 118.065745,87.0618993 104.586735,87.0618993 L64.1316601,87.0618993 C53.0505946,87.0618993 43.8819805,96.5579743 43.8819805,107.668201 L43.8819805,146.281413 C43.8819805,157.268485 53.4245559,163.733304 64.1316601,166.884431 C76.951318,170.656259 89.2461178,171.339359 104.586735,166.884431 C114.782102,163.927067 124.836414,157.9795 124.836414,146.281413 L124.836414,130.826276 L84.38298,130.826276 L84.38298,125.673469 L145.089374,125.673469 C156.859316,125.673469 161.248441,117.454922 165.342334,105.116429 C169.570722,92.4150386 169.388662,80.1997003 165.342334,63.907109 C162.432652,52.1745385 156.877358,43.3467849 145.089374,43.3467849 L129.888173,43.3467849 L129.888173,43.348427 Z M107.133936,141.128606 C111.334441,141.128606 114.734537,144.572021 114.734537,148.833185 C114.734537,153.105844 111.332801,156.582101 107.133936,156.582101 C102.951474,156.582101 99.5349758,153.105844 99.5349758,148.833185 C99.5349758,144.572021 102.951474,141.128606 107.133936,141.128606 L107.133936,141.128606 Z" id="Shape" fill="url(#linearGradient-2)"></path>
                        </g>
                    </g>
                </g>
            </g>
        </g>
    </g>
</svg>