<?xml version="1.0" encoding="UTF-8" standalone="no"?>
<svg width="176px" height="170px" viewBox="0 0 176 170" version="1.1" xmlns="http://www.w3.org/2000/svg" xmlns:xlink="http://www.w3.org/1999/xlink">
    <!-- Generator: Sketch 39.1 (31720) - http://www.bohemiancoding.com/sketch -->
    <title>jquery-original</title>
    <desc>Created with Sketch.</desc>
    <defs></defs>
    <g id="Page-1" stroke="none" stroke-width="1" fill="none" fill-rule="evenodd">
        <g id="Artboard" transform="translate(-453.000000, -8209.000000)" fill="#0868AC">
            <g id="Group-5" transform="translate(98.000000, 7782.000000)">
                <g id="jquery-original" transform="translate(355.193396, 427.000000)">
                    <path d="M11.3299374,40.2437666 C-4.18332509,62.5395979 -2.25207934,91.5504818 9.59842716,115.243055 C9.87974482,115.811317 10.1751284,116.369732 10.4662921,116.928148 L11.0204879,117.995749 L11.3665087,118.610428 L11.9840009,119.716006 C12.3525271,120.364443 12.7294927,121.010067 13.1148979,121.655691 L13.760522,122.719072 C14.1881248,123.409707 14.6255738,124.091902 15.0728689,124.772691 L15.632691,125.636336 C16.2501833,126.557652 16.8817414,127.47756 17.5343984,128.38059 L17.5892553,128.450919 L17.9099575,128.884149 C18.4739994,129.661992 19.0549204,130.429989 19.6428743,131.189547 L20.2955312,132.019434 C20.8201887,132.679124 21.3532856,133.334594 21.8962287,133.987251 L22.5080946,134.718677 C23.2367074,135.576696 23.9807926,136.430495 24.7389437,137.267415 L24.7853611,137.313832 L24.871163,137.40948 C25.612435,138.218269 26.3705861,139.008771 27.1385834,139.799274 L27.8657895,140.532106 C28.4607764,141.131313 29.0656093,141.720674 29.6760687,142.307221 L30.4173407,143.010515 C31.2331619,143.779919 32.0574227,144.53385 32.8985625,145.270902 L32.937947,145.301847 L33.3697696,145.670373 C34.1110416,146.311778 34.8649729,146.948962 35.6245306,147.573487 L36.5585053,148.317573 C37.1788107,148.815505 37.8061491,149.304998 38.4377072,149.786051 L39.4420113,150.549828 C40.1396791,151.063233 40.8415667,151.568198 41.5504872,152.061911 L42.3184844,152.60626 L42.5294726,152.756765 C43.2018218,153.219533 43.8896435,153.665421 44.5774652,154.11131 L45.4636158,154.702077 C46.5185571,155.3688 47.5875642,156.02849 48.6692306,156.665674 L49.5553812,157.165013 C50.3501036,157.623561 51.1504524,158.073669 51.9606472,158.513931 C52.3995028,158.750238 52.849611,158.973886 53.2912798,159.200346 C53.8637612,159.49995 54.4320229,159.803773 55.0143504,160.094937 L55.4124149,160.287639 L56.1171157,160.628034 C57.0187388,161.05845 57.9273948,161.481833 58.845897,161.889743 L59.4225982,162.148556 C60.4747263,162.60851 61.5352938,163.050179 62.6057075,163.472155 L63.3807377,163.777385 C64.3709759,164.15857 65.3752799,164.535536 66.3838037,164.889996 L66.7607694,165.020809 C67.8677544,165.407621 68.9845855,165.766301 70.1098562,166.116541 L70.9186444,166.358474 C72.0636073,166.703088 73.1959109,167.115219 74.3760385,167.33324 C149.402052,181.015124 171.195732,122.247865 171.195732,122.247865 C152.891798,146.093757 120.402421,152.384019 89.619236,145.380616 C88.4531743,145.117584 87.3222773,144.753278 86.1843474,144.417103 L85.3277351,144.156884 C84.2165303,143.81649 83.1151717,143.45781 82.0194394,143.080844 L81.5651114,142.916274 C80.5833127,142.571659 79.6141734,142.207353 78.6478472,141.834607 L77.8292128,141.512498 C76.7714584,141.094742 75.7193303,140.658699 74.6798616,140.202965 L74.0511166,139.92446 C73.157933,139.519363 72.2745956,139.111452 71.3940713,138.688069 L70.6260741,138.319543 C69.9354392,137.983368 69.2518373,137.626095 68.5710486,137.274448 C68.1153139,137.033921 67.6511398,136.807461 67.199625,136.557088 C66.3669247,136.111199 65.5511035,135.648432 64.7366888,135.175818 L63.9053951,134.711644 C62.8237287,134.075866 61.7561282,133.416176 60.6983738,132.74664 L59.833322,132.169939 C59.0667314,131.676226 58.3029539,131.172668 57.5504292,130.65223 L56.8161901,130.136012 C56.0903905,129.622607 55.3716239,129.103576 54.6584836,128.576106 L53.7034101,127.853119 C53.0493466,127.353781 52.3995028,126.850222 51.7566919,126.331191 L50.8888269,125.63493 C50.0701925,124.961174 49.2628109,124.286011 48.4638687,123.591157 L48.1980235,123.367509 C47.3343783,122.609358 46.4876121,121.831515 45.6492855,121.050858 L44.9305189,120.360223 C44.3102134,119.769456 43.6997541,119.17447 43.0991409,118.56401 L42.3817809,117.848057 C41.6180034,117.065994 40.8682918,116.274084 40.1340527,115.470923 L40.0229323,115.352769 C39.2464955,114.50319 38.4869378,113.635325 37.7428526,112.75902 L37.1464592,112.0501 C36.5922634,111.38197 36.0422873,110.705401 35.5049706,110.021799 L34.9043574,109.273494 C34.2587334,108.435168 33.6271752,107.601061 33.009683,106.750075 C15.919635,83.4372804 9.77847046,51.2854848 23.4378495,24.8810091 M59.4873013,21.4573732 C48.2669463,37.6021938 48.8774057,59.2158297 57.6291981,76.2904052 C59.0962697,79.1528124 60.7461978,81.9308243 62.5916417,84.5738037 C64.2725147,86.9832895 66.1362442,89.8499165 68.3670933,91.785382 C69.1758815,92.6757524 70.0212411,93.545024 70.8848863,94.3988231 L71.548796,95.0528866 C72.3871226,95.8658947 73.2381086,96.6648368 74.1200394,97.4412736 L74.224127,97.5312952 L74.2494456,97.5566138 C75.2242113,98.4118195 76.2299219,99.2318605 77.2525116,100.042055 L77.9347069,100.573746 C78.9601098,101.360029 80.0052049,102.130839 81.0756186,102.867891 L81.1670469,102.936814 C81.6396605,103.263143 82.1207137,103.566966 82.6003603,103.882041 L83.2797425,104.330743 C84.0449265,104.821642 84.8199567,105.299882 85.6076461,105.75843 L85.9381944,105.949726 C86.6175766,106.340758 87.3053982,106.726163 87.9960331,107.100315 L88.7288656,107.481501 C89.205699,107.730467 89.6825325,107.98506 90.1678054,108.226993 L90.3858266,108.325454 C91.3746582,108.812133 92.3719293,109.281934 93.3902993,109.725009 L94.0542089,109.997887 C94.8686236,110.343908 95.6914777,110.681489 96.5157385,110.996565 L97.5706797,111.383377 C98.3203913,111.661881 99.072916,111.915067 99.8310671,112.16966 L100.853657,112.497395 C101.93251,112.832163 102.998704,113.255546 104.122568,113.442622 C162.050094,123.039774 175.423936,78.4382655 175.423936,78.4382655 C163.369474,95.799785 140.022921,104.08459 115.110836,97.6170971 C114.003851,97.3259333 112.913745,97.0108576 111.829265,96.6690566 L110.843247,96.3497611 C110.072437,96.1007949 109.307253,95.8363563 108.549101,95.5592584 L107.513852,95.1738532 C106.681152,94.8531511 105.859705,94.5240094 105.043883,94.1779887 L104.378567,93.896671 C103.355977,93.4521891 102.34886,92.9823886 101.357215,92.4914893 C100.846624,92.2425232 100.344472,91.9794912 99.8409132,91.7206789 L98.9660153,91.2705707 C98.3217979,90.9217368 97.6803936,90.558837 97.0488354,90.1874977 L96.5902877,89.9272788 C95.8054114,89.4701376 95.0331944,88.997524 94.2680104,88.5094378 L93.5675294,88.0424505 C93.0625642,87.716122 92.5590056,87.3827606 92.0638865,87.0479926 C90.996286,86.3109403 89.9568172,85.5401299 88.9328209,84.7580668 L88.2281202,84.2024644 C77.3242476,75.594144 68.6793559,63.8266262 64.5707114,50.4851361 C60.263738,36.6499335 61.1920863,21.1183854 68.6540373,8.51254098 M99.9900116,7.42243504 C93.3762334,17.1560261 92.7263896,29.2442461 97.3160872,39.9933939 C102.156158,51.4050448 112.072605,60.3551663 123.64742,64.6016564 C124.124254,64.7774799 124.602494,64.9350178 125.084954,65.0995886 L125.719325,65.3007307 C126.40152,65.5145322 127.078089,65.7634983 127.78279,65.8971242 C159.768608,72.0776732 168.444445,49.4836452 170.752656,46.1570639 C163.154266,57.0989143 150.382444,59.7250147 134.711644,55.9215999 C133.473846,55.6219966 132.113675,55.1747015 130.920888,54.7513184 C129.39052,54.2055622 127.882658,53.5838501 126.418399,52.8819626 C123.636168,51.5442971 120.983342,49.9225008 118.524626,48.0658042 C104.502347,37.4249637 95.7913455,17.129301 104.941202,0.600481751" id="Shape"></path>
                </g>
            </g>
        </g>
    </g>
</svg>